<?xml version="1.0" encoding="utf-8" standalone="no"?>
<!DOCTYPE svg PUBLIC "-//W3C//DTD SVG 1.1//EN"
  "http://www.w3.org/Graphics/SVG/1.1/DTD/svg11.dtd">
<svg xmlns:xlink="http://www.w3.org/1999/xlink" width="576pt" height="432pt" viewBox="0 0 576 432" xmlns="http://www.w3.org/2000/svg" version="1.1">
 <metadata>
  <rdf:RDF xmlns:dc="http://purl.org/dc/elements/1.1/" xmlns:cc="http://creativecommons.org/ns#" xmlns:rdf="http://www.w3.org/1999/02/22-rdf-syntax-ns#">
   <cc:Work>
    <dc:type rdf:resource="http://purl.org/dc/dcmitype/StillImage"/>
    <dc:date>2023-05-05T11:56:12.797747</dc:date>
    <dc:format>image/svg+xml</dc:format>
    <dc:creator>
     <cc:Agent>
      <dc:title>Matplotlib v3.6.0, https://matplotlib.org/</dc:title>
     </cc:Agent>
    </dc:creator>
   </cc:Work>
  </rdf:RDF>
 </metadata>
 <defs>
  <style type="text/css">*{stroke-linejoin: round; stroke-linecap: butt}</style>
 </defs>
 <g id="figure_1">
  <g id="patch_1">
   <path d="M 0 432 
L 576 432 
L 576 0 
L 0 0 
z
" style="fill: #ffffff"/>
  </g>
  <g id="axes_1">
   <g id="patch_2">
    <path d="M 72 384.48 
L 518.4 384.48 
L 518.4 51.84 
L 72 51.84 
z
" style="fill: #ffffff"/>
   </g>
   <g id="matplotlib.axis_1">
    <g id="xtick_1">
     <g id="text_1">
      <text style="fill: #262626; font: 10px 'sans-serif'; text-anchor: middle" x="183.6" y="398.759687" transform="rotate(-0 183.6 398.759687)">TCGA_CRC_genome_RS210</text>
     </g>
    </g>
    <g id="xtick_2">
     <g id="text_2">
      <text style="fill: #262626; font: 10px 'sans-serif'; text-anchor: middle" x="406.8" y="398.759687" transform="rotate(-0 406.8 398.759687)">CRC_tumor_genome_RS210</text>
     </g>
    </g>
    <g id="text_3">
     <text style="fill: #262626; font: 10px 'sans-serif'; text-anchor: middle" x="295.2" y="412.144063" transform="rotate(-0 295.2 412.144063)">Sample Type</text>
    </g>
   </g>
   <g id="matplotlib.axis_2">
    <g id="ytick_1">
     <g id="line2d_1">
      <path d="M 72 379.518838 
L 518.4 379.518838 
" clip-path="url(#p4e9a226538)" style="fill: none; stroke: #cccccc; stroke-width: 0.8; stroke-linecap: round"/>
     </g>
     <g id="text_4">
      <text style="fill: #262626; font: 10px 'sans-serif'; text-anchor: end" x="65" y="383.097744" transform="rotate(-0 65 383.097744)">4.0</text>
     </g>
    </g>
    <g id="ytick_2">
     <g id="line2d_2">
      <path d="M 72 339.952433 
L 518.4 339.952433 
" clip-path="url(#p4e9a226538)" style="fill: none; stroke: #cccccc; stroke-width: 0.8; stroke-linecap: round"/>
     </g>
     <g id="text_5">
      <text style="fill: #262626; font: 10px 'sans-serif'; text-anchor: end" x="65" y="343.531339" transform="rotate(-0 65 343.531339)">4.5</text>
     </g>
    </g>
    <g id="ytick_3">
     <g id="line2d_3">
      <path d="M 72 300.386028 
L 518.4 300.386028 
" clip-path="url(#p4e9a226538)" style="fill: none; stroke: #cccccc; stroke-width: 0.8; stroke-linecap: round"/>
     </g>
     <g id="text_6">
      <text style="fill: #262626; font: 10px 'sans-serif'; text-anchor: end" x="65" y="303.964934" transform="rotate(-0 65 303.964934)">5.0</text>
     </g>
    </g>
    <g id="ytick_4">
     <g id="line2d_4">
      <path d="M 72 260.819623 
L 518.4 260.819623 
" clip-path="url(#p4e9a226538)" style="fill: none; stroke: #cccccc; stroke-width: 0.8; stroke-linecap: round"/>
     </g>
     <g id="text_7">
      <text style="fill: #262626; font: 10px 'sans-serif'; text-anchor: end" x="65" y="264.398529" transform="rotate(-0 65 264.398529)">5.5</text>
     </g>
    </g>
    <g id="ytick_5">
     <g id="line2d_5">
      <path d="M 72 221.253218 
L 518.4 221.253218 
" clip-path="url(#p4e9a226538)" style="fill: none; stroke: #cccccc; stroke-width: 0.8; stroke-linecap: round"/>
     </g>
     <g id="text_8">
      <text style="fill: #262626; font: 10px 'sans-serif'; text-anchor: end" x="65" y="224.832124" transform="rotate(-0 65 224.832124)">6.0</text>
     </g>
    </g>
    <g id="ytick_6">
     <g id="line2d_6">
      <path d="M 72 181.686813 
L 518.4 181.686813 
" clip-path="url(#p4e9a226538)" style="fill: none; stroke: #cccccc; stroke-width: 0.8; stroke-linecap: round"/>
     </g>
     <g id="text_9">
      <text style="fill: #262626; font: 10px 'sans-serif'; text-anchor: end" x="65" y="185.265719" transform="rotate(-0 65 185.265719)">6.5</text>
     </g>
    </g>
    <g id="ytick_7">
     <g id="line2d_7">
      <path d="M 72 142.120408 
L 518.4 142.120408 
" clip-path="url(#p4e9a226538)" style="fill: none; stroke: #cccccc; stroke-width: 0.8; stroke-linecap: round"/>
     </g>
     <g id="text_10">
      <text style="fill: #262626; font: 10px 'sans-serif'; text-anchor: end" x="65" y="145.699314" transform="rotate(-0 65 145.699314)">7.0</text>
     </g>
    </g>
    <g id="ytick_8">
     <g id="line2d_8">
      <path d="M 72 102.554003 
L 518.4 102.554003 
" clip-path="url(#p4e9a226538)" style="fill: none; stroke: #cccccc; stroke-width: 0.8; stroke-linecap: round"/>
     </g>
     <g id="text_11">
      <text style="fill: #262626; font: 10px 'sans-serif'; text-anchor: end" x="65" y="106.132909" transform="rotate(-0 65 106.132909)">7.5</text>
     </g>
    </g>
    <g id="ytick_9">
     <g id="line2d_9">
      <path d="M 72 62.987598 
L 518.4 62.987598 
" clip-path="url(#p4e9a226538)" style="fill: none; stroke: #cccccc; stroke-width: 0.8; stroke-linecap: round"/>
     </g>
     <g id="text_12">
      <text style="fill: #262626; font: 10px 'sans-serif'; text-anchor: end" x="65" y="66.566504" transform="rotate(-0 65 66.566504)">8.0</text>
     </g>
    </g>
    <g id="text_13">
     <text style="fill: #262626; font: 10px 'sans-serif'; text-anchor: middle" x="44.995312" y="218.16" transform="rotate(-90 44.995312 218.16)">Shannon Entropy</text>
    </g>
   </g>
   <g id="patch_3">
    <path d="M 161.28 244.077726 
L 205.92 244.077726 
L 205.92 123.714996 
L 161.28 123.714996 
L 161.28 244.077726 
z
" clip-path="url(#p4e9a226538)" style="fill: #808080; stroke: #4d4d4d; stroke-width: 1.5; stroke-linejoin: miter"/>
   </g>
   <g id="patch_4">
    <path d="M 384.48 233.971956 
L 429.12 233.971956 
L 429.12 228.252767 
L 384.48 228.252767 
L 384.48 233.971956 
z
" clip-path="url(#p4e9a226538)" style="fill: #808080; stroke: #4d4d4d; stroke-width: 1.5; stroke-linejoin: miter"/>
   </g>
   <g id="PolyCollection_1">
    <path d="M 183.69983 446.038719 
L 183.50017 446.038719 
L 183.470437 441.435108 
L 183.434095 436.831498 
L 183.390386 432.227887 
L 183.33867 427.624277 
L 183.278487 423.020666 
L 183.209626 418.417056 
L 183.132184 413.813445 
L 183.04661 409.209835 
L 182.953744 404.606224 
L 182.854816 400.002614 
L 182.751425 395.399003 
L 182.645483 390.795393 
L 182.539121 386.191782 
L 182.434575 381.588172 
L 182.334038 376.984561 
L 182.239511 372.380951 
L 182.152646 367.77734 
L 182.074604 363.17373 
L 182.005944 358.57012 
L 181.946545 353.966509 
L 181.895588 349.362899 
L 181.851577 344.759288 
L 181.812426 340.155678 
L 181.775588 335.552067 
L 181.738224 330.948457 
L 181.697397 326.344846 
L 181.650271 321.741236 
L 181.594306 317.137625 
L 181.527425 312.534015 
L 181.448146 307.930404 
L 181.355661 303.326794 
L 181.249872 298.723183 
L 181.131371 294.119573 
L 181.001378 289.515962 
L 180.861634 284.912352 
L 180.714281 280.308741 
L 180.561721 275.705131 
L 180.406471 271.10152 
L 180.251038 266.49791 
L 180.097795 261.8943 
L 179.948891 257.290689 
L 179.806175 252.687079 
L 179.671143 248.083468 
L 179.544906 243.479858 
L 179.428166 238.876247 
L 179.321212 234.272637 
L 179.223917 229.669026 
L 179.135747 225.065416 
L 179.055779 220.461805 
L 178.982738 215.858195 
L 178.915037 211.254584 
L 178.850858 206.650974 
L 178.788239 202.047363 
L 178.725203 197.443753 
L 178.659897 192.840142 
L 178.590763 188.236532 
L 178.5167 183.632921 
L 178.437238 179.029311 
L 178.352678 174.4257 
L 178.264198 169.82209 
L 178.17391 165.21848 
L 178.084842 160.614869 
L 178.000862 156.011259 
L 177.926512 151.407648 
L 177.866789 146.804038 
L 177.826864 142.200427 
L 177.811771 137.596817 
L 177.826081 132.993206 
L 177.873596 128.389596 
L 177.957082 123.785985 
L 178.07806 119.182375 
L 178.236684 114.578764 
L 178.4317 109.975154 
L 178.660501 105.371543 
L 178.919262 100.767933 
L 179.20315 96.164322 
L 179.506583 91.560712 
L 179.823522 86.957101 
L 180.147768 82.353491 
L 180.47325 77.74988 
L 180.794276 73.14627 
L 181.10574 68.54266 
L 181.40328 63.939049 
L 181.683369 59.335439 
L 181.943358 54.731828 
L 182.181466 50.128218 
L 182.396728 45.524607 
L 182.588912 40.920997 
L 182.758416 36.317386 
L 182.90615 31.713776 
L 183.033417 27.110165 
L 183.141803 22.506555 
L 183.233066 17.902944 
L 183.309051 13.299334 
L 183.371607 8.695723 
L 183.422533 4.092113 
L 183.463525 -0.511498 
L 183.496148 -5.115108 
L 183.521814 -9.718719 
L 183.678186 -9.718719 
L 183.678186 -9.718719 
L 183.703852 -5.115108 
L 183.736475 -0.511498 
L 183.777467 4.092113 
L 183.828393 8.695723 
L 183.890949 13.299334 
L 183.966934 17.902944 
L 184.058197 22.506555 
L 184.166583 27.110165 
L 184.29385 31.713776 
L 184.441584 36.317386 
L 184.611088 40.920997 
L 184.803272 45.524607 
L 185.018534 50.128218 
L 185.256642 54.731828 
L 185.516631 59.335439 
L 185.79672 63.939049 
L 186.09426 68.54266 
L 186.405724 73.14627 
L 186.72675 77.74988 
L 187.052232 82.353491 
L 187.376478 86.957101 
L 187.693417 91.560712 
L 187.99685 96.164322 
L 188.280738 100.767933 
L 188.539499 105.371543 
L 188.7683 109.975154 
L 188.963316 114.578764 
L 189.12194 119.182375 
L 189.242918 123.785985 
L 189.326404 128.389596 
L 189.373919 132.993206 
L 189.388229 137.596817 
L 189.373136 142.200427 
L 189.333211 146.804038 
L 189.273488 151.407648 
L 189.199138 156.011259 
L 189.115158 160.614869 
L 189.02609 165.21848 
L 188.935802 169.82209 
L 188.847322 174.4257 
L 188.762762 179.029311 
L 188.6833 183.632921 
L 188.609237 188.236532 
L 188.540103 192.840142 
L 188.474797 197.443753 
L 188.411761 202.047363 
L 188.349142 206.650974 
L 188.284963 211.254584 
L 188.217262 215.858195 
L 188.144221 220.461805 
L 188.064253 225.065416 
L 187.976083 229.669026 
L 187.878788 234.272637 
L 187.771834 238.876247 
L 187.655094 243.479858 
L 187.528857 248.083468 
L 187.393825 252.687079 
L 187.251109 257.290689 
L 187.102205 261.8943 
L 186.948962 266.49791 
L 186.793529 271.10152 
L 186.638279 275.705131 
L 186.485719 280.308741 
L 186.338366 284.912352 
L 186.198622 289.515962 
L 186.068629 294.119573 
L 185.950128 298.723183 
L 185.844339 303.326794 
L 185.751854 307.930404 
L 185.672575 312.534015 
L 185.605694 317.137625 
L 185.549729 321.741236 
L 185.502603 326.344846 
L 185.461776 330.948457 
L 185.424412 335.552067 
L 185.387574 340.155678 
L 185.348423 344.759288 
L 185.304412 349.362899 
L 185.253455 353.966509 
L 185.194056 358.57012 
L 185.125396 363.17373 
L 185.047354 367.77734 
L 184.960489 372.380951 
L 184.865962 376.984561 
L 184.765425 381.588172 
L 184.660879 386.191782 
L 184.554517 390.795393 
L 184.448575 395.399003 
L 184.345184 400.002614 
L 184.246256 404.606224 
L 184.15339 409.209835 
L 184.067816 413.813445 
L 183.990374 418.417056 
L 183.921513 423.020666 
L 183.86133 427.624277 
L 183.809614 432.227887 
L 183.765905 436.831498 
L 183.729563 441.435108 
L 183.69983 446.038719 
z
" clip-path="url(#p4e9a226538)" style="fill: #3274a1; stroke: #3f3f3f; stroke-width: 1.5"/>
   </g>
   <g id="PolyCollection_2">
    <defs>
     <path id="m6b95e9a16e" d="M 410.059468 -187.392438 
L 403.540532 -187.392438 
L 402.818968 -187.742541 
L 401.970237 -188.092644 
L 400.979523 -188.442747 
L 399.831886 -188.79285 
L 398.512627 -189.142953 
L 397.007708 -189.493057 
L 395.304232 -189.84316 
L 393.390953 -190.193263 
L 391.258829 -190.543366 
L 388.901579 -190.893469 
L 386.316238 -191.243572 
L 383.503684 -191.593675 
L 380.469113 -191.943778 
L 377.222431 -192.293881 
L 373.77855 -192.643984 
L 370.157554 -192.994087 
L 366.384716 -193.34419 
L 362.490357 -193.694294 
L 358.509524 -194.044397 
L 354.481492 -194.3945 
L 350.449101 -194.744603 
L 346.457919 -195.094706 
L 342.555287 -195.444809 
L 338.789243 -195.794912 
L 335.207386 -196.145015 
L 331.85572 -196.495118 
L 328.777512 -196.845221 
L 326.012229 -197.195324 
L 323.594586 -197.545427 
L 321.553758 -197.89553 
L 319.912768 -198.245634 
L 318.688091 -198.595737 
L 317.88948 -198.94584 
L 317.52 -199.295943 
L 317.576269 -199.646046 
L 318.048874 -199.996149 
L 318.922923 -200.346252 
L 320.178706 -200.696355 
L 321.792406 -201.046458 
L 323.736831 -201.396561 
L 325.982117 -201.746664 
L 328.496384 -202.096767 
L 331.246311 -202.44687 
L 334.197631 -202.796974 
L 337.315527 -203.147077 
L 340.564955 -203.49718 
L 343.910906 -203.847283 
L 347.318611 -204.197386 
L 350.753749 -204.547489 
L 354.182641 -204.897592 
L 357.572484 -205.247695 
L 360.891628 -205.597798 
L 364.109899 -205.947901 
L 367.198983 -206.298004 
L 370.132853 -206.648107 
L 372.888229 -206.998211 
L 375.445052 -207.348314 
L 377.78694 -207.698417 
L 379.901603 -208.04852 
L 381.781193 -208.398623 
L 383.422549 -208.748726 
L 384.827326 -209.098829 
L 386.001991 -209.448932 
L 386.957667 -209.799035 
L 387.709827 -210.149138 
L 388.277845 -210.499241 
L 388.684413 -210.849344 
L 388.95484 -211.199447 
L 389.116265 -211.549551 
L 389.196808 -211.899654 
L 389.2247 -212.249757 
L 389.227413 -212.59986 
L 389.230841 -212.949963 
L 389.258552 -213.300066 
L 389.331147 -213.650169 
L 389.46575 -214.000272 
L 389.675643 -214.350375 
L 389.970062 -214.700478 
L 390.35415 -215.050581 
L 390.829074 -215.400684 
L 391.392278 -215.750788 
L 392.037872 -216.100891 
L 392.757117 -216.450994 
L 393.538985 -216.801097 
L 394.370769 -217.1512 
L 395.238705 -217.501303 
L 396.12858 -217.851406 
L 397.026301 -218.201509 
L 397.918399 -218.551612 
L 398.792463 -218.901715 
L 399.637473 -219.251818 
L 400.444045 -219.601921 
L 401.204578 -219.952024 
L 401.913311 -220.302128 
L 402.566298 -220.652231 
L 403.161311 -221.002334 
L 403.697691 -221.352437 
L 404.176159 -221.70254 
L 404.598594 -222.052643 
L 409.001406 -222.052643 
L 409.001406 -222.052643 
L 409.423841 -221.70254 
L 409.902309 -221.352437 
L 410.438689 -221.002334 
L 411.033702 -220.652231 
L 411.686689 -220.302128 
L 412.395422 -219.952024 
L 413.155955 -219.601921 
L 413.962527 -219.251818 
L 414.807537 -218.901715 
L 415.681601 -218.551612 
L 416.573699 -218.201509 
L 417.47142 -217.851406 
L 418.361295 -217.501303 
L 419.229231 -217.1512 
L 420.061015 -216.801097 
L 420.842883 -216.450994 
L 421.562128 -216.100891 
L 422.207722 -215.750788 
L 422.770926 -215.400684 
L 423.24585 -215.050581 
L 423.629938 -214.700478 
L 423.924357 -214.350375 
L 424.13425 -214.000272 
L 424.268853 -213.650169 
L 424.341448 -213.300066 
L 424.369159 -212.949963 
L 424.372587 -212.59986 
L 424.3753 -212.249757 
L 424.403192 -211.899654 
L 424.483735 -211.549551 
L 424.64516 -211.199447 
L 424.915587 -210.849344 
L 425.322155 -210.499241 
L 425.890173 -210.149138 
L 426.642333 -209.799035 
L 427.598009 -209.448932 
L 428.772674 -209.098829 
L 430.177451 -208.748726 
L 431.818807 -208.398623 
L 433.698397 -208.04852 
L 435.81306 -207.698417 
L 438.154948 -207.348314 
L 440.711771 -206.998211 
L 443.467147 -206.648107 
L 446.401017 -206.298004 
L 449.490101 -205.947901 
L 452.708372 -205.597798 
L 456.027516 -205.247695 
L 459.417359 -204.897592 
L 462.846251 -204.547489 
L 466.281389 -204.197386 
L 469.689094 -203.847283 
L 473.035045 -203.49718 
L 476.284473 -203.147077 
L 479.402369 -202.796974 
L 482.353689 -202.44687 
L 485.103616 -202.096767 
L 487.617883 -201.746664 
L 489.863169 -201.396561 
L 491.807594 -201.046458 
L 493.421294 -200.696355 
L 494.677077 -200.346252 
L 495.551126 -199.996149 
L 496.023731 -199.646046 
L 496.08 -199.295943 
L 495.71052 -198.94584 
L 494.911909 -198.595737 
L 493.687232 -198.245634 
L 492.046242 -197.89553 
L 490.005414 -197.545427 
L 487.587771 -197.195324 
L 484.822488 -196.845221 
L 481.74428 -196.495118 
L 478.392614 -196.145015 
L 474.810757 -195.794912 
L 471.044713 -195.444809 
L 467.142081 -195.094706 
L 463.150899 -194.744603 
L 459.118508 -194.3945 
L 455.090476 -194.044397 
L 451.109643 -193.694294 
L 447.215284 -193.34419 
L 443.442446 -192.994087 
L 439.82145 -192.643984 
L 436.377569 -192.293881 
L 433.130887 -191.943778 
L 430.096316 -191.593675 
L 427.283762 -191.243572 
L 424.698421 -190.893469 
L 422.341171 -190.543366 
L 420.209047 -190.193263 
L 418.295768 -189.84316 
L 416.592292 -189.493057 
L 415.087373 -189.142953 
L 413.768114 -188.79285 
L 412.620477 -188.442747 
L 411.629763 -188.092644 
L 410.781032 -187.742541 
L 410.059468 -187.392438 
z
" style="stroke: #3f3f3f; stroke-width: 1.5"/>
    </defs>
    <g clip-path="url(#p4e9a226538)">
     <use xlink:href="#m6b95e9a16e" x="0" y="432" style="fill: #e1812c; stroke: #3f3f3f; stroke-width: 1.5"/>
    </g>
   </g>
   <g id="line2d_10">
    <path d="M 183.6 369.36 
L 183.6 66.96 
" clip-path="url(#p4e9a226538)" style="fill: none; stroke: #3f3f3f; stroke-width: 1.5; stroke-linecap: round"/>
   </g>
   <g id="line2d_11">
    <path d="M 183.6 244.077726 
L 183.6 123.714996 
" clip-path="url(#p4e9a226538)" style="fill: none; stroke: #3f3f3f; stroke-width: 4.5; stroke-linecap: round"/>
   </g>
   <g id="line2d_12">
    <path d="M 406.8 236.805802 
L 406.8 228.113016 
" clip-path="url(#p4e9a226538)" style="fill: none; stroke: #3f3f3f; stroke-width: 1.5; stroke-linecap: round"/>
   </g>
   <g id="line2d_13">
    <path d="M 406.8 233.971956 
L 406.8 228.252767 
" clip-path="url(#p4e9a226538)" style="fill: none; stroke: #3f3f3f; stroke-width: 4.5; stroke-linecap: round"/>
   </g>
   <g id="line2d_14">
    <path d="M 183.6 244.077726 
L 183.6 369.36 
" clip-path="url(#p4e9a226538)" style="fill: none; stroke: #4d4d4d; stroke-width: 1.5; stroke-linecap: round"/>
   </g>
   <g id="line2d_15">
    <path d="M 183.6 123.714996 
L 183.6 66.96 
" clip-path="url(#p4e9a226538)" style="fill: none; stroke: #4d4d4d; stroke-width: 1.5; stroke-linecap: round"/>
   </g>
   <g id="line2d_16">
    <path d="M 172.44 369.36 
L 194.76 369.36 
" clip-path="url(#p4e9a226538)" style="fill: none; stroke: #4d4d4d; stroke-width: 1.5; stroke-linecap: round"/>
   </g>
   <g id="line2d_17">
    <path d="M 172.44 66.96 
L 194.76 66.96 
" clip-path="url(#p4e9a226538)" style="fill: none; stroke: #4d4d4d; stroke-width: 1.5; stroke-linecap: round"/>
   </g>
   <g id="line2d_18">
    <path d="M 406.8 233.971956 
L 406.8 236.805802 
" clip-path="url(#p4e9a226538)" style="fill: none; stroke: #4d4d4d; stroke-width: 1.5; stroke-linecap: round"/>
   </g>
   <g id="line2d_19">
    <path d="M 406.8 228.252767 
L 406.8 228.113016 
" clip-path="url(#p4e9a226538)" style="fill: none; stroke: #4d4d4d; stroke-width: 1.5; stroke-linecap: round"/>
   </g>
   <g id="line2d_20">
    <path d="M 395.64 236.805802 
L 417.96 236.805802 
" clip-path="url(#p4e9a226538)" style="fill: none; stroke: #4d4d4d; stroke-width: 1.5; stroke-linecap: round"/>
   </g>
   <g id="line2d_21">
    <path d="M 395.64 228.113016 
L 417.96 228.113016 
" clip-path="url(#p4e9a226538)" style="fill: none; stroke: #4d4d4d; stroke-width: 1.5; stroke-linecap: round"/>
   </g>
   <g id="line2d_22">
    <path d="M 161.28 184.129884 
L 205.92 184.129884 
" clip-path="url(#p4e9a226538)" style="fill: none; stroke: #4d4d4d; stroke-width: 1.5; stroke-linecap: round"/>
   </g>
   <g id="line2d_23">
    <path d="M 384.48 232.402396 
L 429.12 232.402396 
" clip-path="url(#p4e9a226538)" style="fill: none; stroke: #4d4d4d; stroke-width: 1.5; stroke-linecap: round"/>
   </g>
   <g id="patch_5">
    <path d="M 72 384.48 
L 72 51.84 
" style="fill: none; stroke: #cccccc; stroke-width: 0.8; stroke-linejoin: miter; stroke-linecap: square"/>
   </g>
   <g id="patch_6">
    <path d="M 518.4 384.48 
L 518.4 51.84 
" style="fill: none; stroke: #cccccc; stroke-width: 0.8; stroke-linejoin: miter; stroke-linecap: square"/>
   </g>
   <g id="patch_7">
    <path d="M 72 384.48 
L 518.4 384.48 
" style="fill: none; stroke: #cccccc; stroke-width: 0.8; stroke-linejoin: miter; stroke-linecap: square"/>
   </g>
   <g id="patch_8">
    <path d="M 72 51.84 
L 518.4 51.84 
" style="fill: none; stroke: #cccccc; stroke-width: 0.8; stroke-linejoin: miter; stroke-linecap: square"/>
   </g>
   <g id="PathCollection_1">
    <defs>
     <path id="m77d06c5cc6" d="M 0 1.5 
C 0.397805 1.5 0.77937 1.341951 1.06066 1.06066 
C 1.341951 0.77937 1.5 0.397805 1.5 0 
C 1.5 -0.397805 1.341951 -0.77937 1.06066 -1.06066 
C 0.77937 -1.341951 0.397805 -1.5 0 -1.5 
C -0.397805 -1.5 -0.77937 -1.341951 -1.06066 -1.06066 
C -1.341951 -0.77937 -1.5 -0.397805 -1.5 0 
C -1.5 0.397805 -1.341951 0.77937 -1.06066 1.06066 
C -0.77937 1.341951 -0.397805 1.5 0 1.5 
z
" style="stroke: #3f3f3f"/>
    </defs>
    <g clip-path="url(#p4e9a226538)">
     <use xlink:href="#m77d06c5cc6" x="183.6" y="184.129884" style="fill: #ffffff; stroke: #3f3f3f"/>
    </g>
   </g>
   <g id="PathCollection_2">
    <g clip-path="url(#p4e9a226538)">
     <use xlink:href="#m77d06c5cc6" x="406.8" y="232.402396" style="fill: #ffffff; stroke: #3f3f3f"/>
    </g>
   </g>
   <g id="PathCollection_3">
    <defs>
     <path id="m33324e3fc3" d="M 0 2.5 
C 0.663008 2.5 1.29895 2.236584 1.767767 1.767767 
C 2.236584 1.29895 2.5 0.663008 2.5 0 
C 2.5 -0.663008 2.236584 -1.29895 1.767767 -1.767767 
C 1.29895 -2.236584 0.663008 -2.5 0 -2.5 
C -0.663008 -2.5 -1.29895 -2.236584 -1.767767 -1.767767 
C -2.236584 -1.29895 -2.5 -0.663008 -2.5 0 
C -2.5 0.663008 -2.236584 1.29895 -1.767767 1.767767 
C -1.29895 2.236584 -0.663008 2.5 0 2.5 
z
"/>
    </defs>
    <g clip-path="url(#p4e9a226538)">
     <use xlink:href="#m33324e3fc3" x="173.870785" y="236.061108"/>
     <use xlink:href="#m33324e3fc3" x="200.178411" y="235.449038"/>
     <use xlink:href="#m33324e3fc3" x="166.984345" y="346.123699"/>
     <use xlink:href="#m33324e3fc3" x="166.070858" y="173.287568"/>
     <use xlink:href="#m33324e3fc3" x="204.674937" y="242.209518"/>
     <use xlink:href="#m33324e3fc3" x="164.195239" y="182.523888"/>
     <use xlink:href="#m33324e3fc3" x="174.049721" y="278.35741"/>
     <use xlink:href="#m33324e3fc3" x="202.811003" y="249.682349"/>
     <use xlink:href="#m33324e3fc3" x="204.933287" y="122.436451"/>
     <use xlink:href="#m33324e3fc3" x="182.497509" y="214.749234"/>
     <use xlink:href="#m33324e3fc3" x="163.435333" y="104.957373"/>
     <use xlink:href="#m33324e3fc3" x="203.325976" y="369.36"/>
     <use xlink:href="#m33324e3fc3" x="198.055393" y="110.331226"/>
     <use xlink:href="#m33324e3fc3" x="179.118147" y="116.884822"/>
     <use xlink:href="#m33324e3fc3" x="198.794336" y="85.593636"/>
     <use xlink:href="#m33324e3fc3" x="177.900641" y="95.80166"/>
     <use xlink:href="#m33324e3fc3" x="193.035169" y="208.29994"/>
     <use xlink:href="#m33324e3fc3" x="196.669603" y="106.523972"/>
     <use xlink:href="#m33324e3fc3" x="186.344703" y="210.207015"/>
     <use xlink:href="#m33324e3fc3" x="183.526422" y="356.042715"/>
     <use xlink:href="#m33324e3fc3" x="185.590513" y="123.643289"/>
     <use xlink:href="#m33324e3fc3" x="176.346856" y="185.735879"/>
     <use xlink:href="#m33324e3fc3" x="195.35233" y="271.120094"/>
     <use xlink:href="#m33324e3fc3" x="200.703737" y="360.809524"/>
     <use xlink:href="#m33324e3fc3" x="171.03935" y="334.396488"/>
     <use xlink:href="#m33324e3fc3" x="197.040007" y="233.050456"/>
     <use xlink:href="#m33324e3fc3" x="193.660698" y="205.610799"/>
     <use xlink:href="#m33324e3fc3" x="189.239915" y="199.752035"/>
     <use xlink:href="#m33324e3fc3" x="198.487945" y="142.602901"/>
     <use xlink:href="#m33324e3fc3" x="188.779879" y="196.742866"/>
     <use xlink:href="#m33324e3fc3" x="166.552862" y="165.062011"/>
     <use xlink:href="#m33324e3fc3" x="199.652839" y="272.100624"/>
     <use xlink:href="#m33324e3fc3" x="185.995386" y="131.041086"/>
     <use xlink:href="#m33324e3fc3" x="188.789074" y="159.018982"/>
     <use xlink:href="#m33324e3fc3" x="162.805311" y="123.738898"/>
     <use xlink:href="#m33324e3fc3" x="166.238977" y="107.366646"/>
     <use xlink:href="#m33324e3fc3" x="199.992825" y="123.30981"/>
     <use xlink:href="#m33324e3fc3" x="191.595297" y="292.233623"/>
     <use xlink:href="#m33324e3fc3" x="199.843669" y="133.768106"/>
     <use xlink:href="#m33324e3fc3" x="204.664646" y="140.926935"/>
     <use xlink:href="#m33324e3fc3" x="187.297811" y="66.96"/>
     <use xlink:href="#m33324e3fc3" x="163.124495" y="135.030098"/>
     <use xlink:href="#m33324e3fc3" x="173.253997" y="260.308744"/>
     <use xlink:href="#m33324e3fc3" x="196.82312" y="149.450777"/>
    </g>
   </g>
   <g id="PathCollection_4">
    <g clip-path="url(#p4e9a226538)">
     <use xlink:href="#m33324e3fc3" x="400.90128" y="232.329152"/>
     <use xlink:href="#m33324e3fc3" x="407.382489" y="232.475641"/>
     <use xlink:href="#m33324e3fc3" x="388.854907" y="217.749117"/>
     <use xlink:href="#m33324e3fc3" x="415.751658" y="234.071854"/>
     <use xlink:href="#m33324e3fc3" x="412.472843" y="228.29935"/>
     <use xlink:href="#m33324e3fc3" x="423.853795" y="228.113016"/>
     <use xlink:href="#m33324e3fc3" x="393.796712" y="236.805802"/>
     <use xlink:href="#m33324e3fc3" x="403.592491" y="233.938657"/>
    </g>
   </g>
  </g>
  <g id="text_14">
   <text style="fill: #262626; font: 700 14px 'sans-serif'; text-anchor: start" x="172.8" y="43.2" transform="rotate(-0 172.8 43.2)">Mann Whiteny U rank test: p-value =0.12663806080794707</text>
  </g>
 </g>
 <defs>
  <clipPath id="p4e9a226538">
   <rect x="72" y="51.84" width="446.4" height="332.64"/>
  </clipPath>
 </defs>
</svg>
