<?xml version="1.0" encoding="utf-8" standalone="no"?>
<!DOCTYPE svg PUBLIC "-//W3C//DTD SVG 1.1//EN"
  "http://www.w3.org/Graphics/SVG/1.1/DTD/svg11.dtd">
<svg xmlns:xlink="http://www.w3.org/1999/xlink" width="576pt" height="432pt" viewBox="0 0 576 432" xmlns="http://www.w3.org/2000/svg" version="1.1">
 <metadata>
  <rdf:RDF xmlns:dc="http://purl.org/dc/elements/1.1/" xmlns:cc="http://creativecommons.org/ns#" xmlns:rdf="http://www.w3.org/1999/02/22-rdf-syntax-ns#">
   <cc:Work>
    <dc:type rdf:resource="http://purl.org/dc/dcmitype/StillImage"/>
    <dc:date>2023-05-05T11:56:12.410639</dc:date>
    <dc:format>image/svg+xml</dc:format>
    <dc:creator>
     <cc:Agent>
      <dc:title>Matplotlib v3.6.0, https://matplotlib.org/</dc:title>
     </cc:Agent>
    </dc:creator>
   </cc:Work>
  </rdf:RDF>
 </metadata>
 <defs>
  <style type="text/css">*{stroke-linejoin: round; stroke-linecap: butt}</style>
 </defs>
 <g id="figure_1">
  <g id="patch_1">
   <path d="M 0 432 
L 576 432 
L 576 0 
L 0 0 
z
" style="fill: #ffffff"/>
  </g>
  <g id="axes_1">
   <g id="patch_2">
    <path d="M 72 384.48 
L 518.4 384.48 
L 518.4 51.84 
L 72 51.84 
z
" style="fill: #ffffff"/>
   </g>
   <g id="matplotlib.axis_1">
    <g id="xtick_1">
     <g id="text_1">
      <text style="fill: #262626; font: 10px 'sans-serif'; text-anchor: middle" x="183.6" y="398.759687" transform="rotate(-0 183.6 398.759687)">TCGA_CRC_genome_RS210</text>
     </g>
    </g>
    <g id="xtick_2">
     <g id="text_2">
      <text style="fill: #262626; font: 10px 'sans-serif'; text-anchor: middle" x="406.8" y="398.759687" transform="rotate(-0 406.8 398.759687)">CRC_tumor_genome_RS210</text>
     </g>
    </g>
    <g id="text_3">
     <text style="fill: #262626; font: 10px 'sans-serif'; text-anchor: middle" x="295.2" y="412.144063" transform="rotate(-0 295.2 412.144063)">Sample Type</text>
    </g>
   </g>
   <g id="matplotlib.axis_2">
    <g id="ytick_1">
     <g id="line2d_1">
      <path d="M 72 380.848235 
L 518.4 380.848235 
" clip-path="url(#p769c8804ed)" style="fill: none; stroke: #cccccc; stroke-width: 0.8; stroke-linecap: round"/>
     </g>
     <g id="text_4">
      <text style="fill: #262626; font: 10px 'sans-serif'; text-anchor: end" x="65" y="384.427142" transform="rotate(-0 65 384.427142)">100</text>
     </g>
    </g>
    <g id="ytick_2">
     <g id="line2d_2">
      <path d="M 72 343.789412 
L 518.4 343.789412 
" clip-path="url(#p769c8804ed)" style="fill: none; stroke: #cccccc; stroke-width: 0.8; stroke-linecap: round"/>
     </g>
     <g id="text_5">
      <text style="fill: #262626; font: 10px 'sans-serif'; text-anchor: end" x="65" y="347.368318" transform="rotate(-0 65 347.368318)">200</text>
     </g>
    </g>
    <g id="ytick_3">
     <g id="line2d_3">
      <path d="M 72 306.730588 
L 518.4 306.730588 
" clip-path="url(#p769c8804ed)" style="fill: none; stroke: #cccccc; stroke-width: 0.8; stroke-linecap: round"/>
     </g>
     <g id="text_6">
      <text style="fill: #262626; font: 10px 'sans-serif'; text-anchor: end" x="65" y="310.309494" transform="rotate(-0 65 310.309494)">300</text>
     </g>
    </g>
    <g id="ytick_4">
     <g id="line2d_4">
      <path d="M 72 269.671765 
L 518.4 269.671765 
" clip-path="url(#p769c8804ed)" style="fill: none; stroke: #cccccc; stroke-width: 0.8; stroke-linecap: round"/>
     </g>
     <g id="text_7">
      <text style="fill: #262626; font: 10px 'sans-serif'; text-anchor: end" x="65" y="273.250671" transform="rotate(-0 65 273.250671)">400</text>
     </g>
    </g>
    <g id="ytick_5">
     <g id="line2d_5">
      <path d="M 72 232.612941 
L 518.4 232.612941 
" clip-path="url(#p769c8804ed)" style="fill: none; stroke: #cccccc; stroke-width: 0.8; stroke-linecap: round"/>
     </g>
     <g id="text_8">
      <text style="fill: #262626; font: 10px 'sans-serif'; text-anchor: end" x="65" y="236.191847" transform="rotate(-0 65 236.191847)">500</text>
     </g>
    </g>
    <g id="ytick_6">
     <g id="line2d_6">
      <path d="M 72 195.554118 
L 518.4 195.554118 
" clip-path="url(#p769c8804ed)" style="fill: none; stroke: #cccccc; stroke-width: 0.8; stroke-linecap: round"/>
     </g>
     <g id="text_9">
      <text style="fill: #262626; font: 10px 'sans-serif'; text-anchor: end" x="65" y="199.133024" transform="rotate(-0 65 199.133024)">600</text>
     </g>
    </g>
    <g id="ytick_7">
     <g id="line2d_7">
      <path d="M 72 158.495294 
L 518.4 158.495294 
" clip-path="url(#p769c8804ed)" style="fill: none; stroke: #cccccc; stroke-width: 0.8; stroke-linecap: round"/>
     </g>
     <g id="text_10">
      <text style="fill: #262626; font: 10px 'sans-serif'; text-anchor: end" x="65" y="162.0742" transform="rotate(-0 65 162.0742)">700</text>
     </g>
    </g>
    <g id="ytick_8">
     <g id="line2d_8">
      <path d="M 72 121.436471 
L 518.4 121.436471 
" clip-path="url(#p769c8804ed)" style="fill: none; stroke: #cccccc; stroke-width: 0.8; stroke-linecap: round"/>
     </g>
     <g id="text_11">
      <text style="fill: #262626; font: 10px 'sans-serif'; text-anchor: end" x="65" y="125.015377" transform="rotate(-0 65 125.015377)">800</text>
     </g>
    </g>
    <g id="ytick_9">
     <g id="line2d_9">
      <path d="M 72 84.377647 
L 518.4 84.377647 
" clip-path="url(#p769c8804ed)" style="fill: none; stroke: #cccccc; stroke-width: 0.8; stroke-linecap: round"/>
     </g>
     <g id="text_12">
      <text style="fill: #262626; font: 10px 'sans-serif'; text-anchor: end" x="65" y="87.956553" transform="rotate(-0 65 87.956553)">900</text>
     </g>
    </g>
    <g id="text_13">
     <text style="fill: #262626; font: 10px 'sans-serif'; text-anchor: middle" x="42.329687" y="218.16" transform="rotate(-90 42.329687 218.16)">Observed Features</text>
    </g>
   </g>
   <g id="patch_3">
    <path d="M 161.28 252.995294 
L 205.92 252.995294 
L 205.92 164.795294 
L 161.28 164.795294 
L 161.28 252.995294 
z
" clip-path="url(#p769c8804ed)" style="fill: #808080; stroke: #4d4d4d; stroke-width: 1.5; stroke-linejoin: miter"/>
   </g>
   <g id="patch_4">
    <path d="M 384.48 355.833529 
L 429.12 355.833529 
L 429.12 349.348235 
L 384.48 349.348235 
L 384.48 355.833529 
z
" clip-path="url(#p769c8804ed)" style="fill: #808080; stroke: #4d4d4d; stroke-width: 1.5; stroke-linejoin: miter"/>
   </g>
   <g id="PolyCollection_1">
    <defs>
     <path id="m135da6e416" d="M 183.712904 1.046139 
L 183.487096 1.046139 
L 183.448886 -3.294995 
L 183.40093 -7.63613 
L 183.341817 -11.977264 
L 183.270246 -16.318398 
L 183.185117 -20.659532 
L 183.085618 -25.000666 
L 182.971306 -29.3418 
L 182.842166 -33.682934 
L 182.698632 -38.024068 
L 182.541574 -42.365202 
L 182.37224 -46.706337 
L 182.192158 -51.047471 
L 182.003005 -55.388605 
L 181.806469 -59.729739 
L 181.604097 -64.070873 
L 181.397182 -68.412007 
L 181.186676 -72.753141 
L 180.973158 -77.094275 
L 180.756854 -81.43541 
L 180.537699 -85.776544 
L 180.315422 -90.117678 
L 180.089633 -94.458812 
L 179.859875 -98.799946 
L 179.625629 -103.14108 
L 179.38625 -107.482214 
L 179.140845 -111.823348 
L 178.888107 -116.164482 
L 178.626153 -120.505617 
L 178.352409 -124.846751 
L 178.063597 -129.187885 
L 177.755861 -133.529019 
L 177.425069 -137.870153 
L 177.067269 -142.211287 
L 176.679281 -146.552421 
L 176.25935 -150.893555 
L 175.807783 -155.234689 
L 175.327469 -159.575824 
L 174.824203 -163.916958 
L 174.306732 -168.258092 
L 173.786496 -172.599226 
L 173.27706 -176.94036 
L 172.793286 -181.281494 
L 172.350307 -185.622628 
L 171.962436 -189.963762 
L 171.642093 -194.304896 
L 171.39889 -198.646031 
L 171.238941 -202.987165 
L 171.164489 -207.328299 
L 171.173848 -211.669433 
L 171.261669 -216.010567 
L 171.41948 -220.351701 
L 171.636429 -224.692835 
L 171.900163 -229.033969 
L 172.197747 -233.375104 
L 172.516554 -237.716238 
L 172.845061 -242.057372 
L 173.173513 -246.398506 
L 173.494404 -250.73964 
L 173.802783 -255.080774 
L 174.096353 -259.421908 
L 174.375389 -263.763042 
L 174.642473 -268.104176 
L 174.90207 -272.445311 
L 175.159983 -276.786445 
L 175.422706 -281.127579 
L 175.696749 -285.468713 
L 175.987968 -289.809847 
L 176.300959 -294.150981 
L 176.638583 -298.492115 
L 177.001649 -302.833249 
L 177.388793 -307.174383 
L 177.796565 -311.515518 
L 178.219705 -315.856652 
L 178.651585 -320.197786 
L 179.084768 -324.53892 
L 179.511608 -328.880054 
L 179.92485 -333.221188 
L 180.318146 -337.562322 
L 180.686452 -341.903456 
L 181.026262 -346.24459 
L 181.335681 -350.585725 
L 181.614335 -354.926859 
L 181.863151 -359.267993 
L 182.084045 -363.609127 
L 182.279577 -367.950261 
L 182.452602 -372.291395 
L 182.605967 -376.632529 
L 182.742283 -380.973663 
L 182.86378 -385.314798 
L 182.972245 -389.655932 
L 183.069039 -393.997066 
L 183.155156 -398.3382 
L 183.231328 -402.679334 
L 183.298124 -407.020468 
L 183.356049 -411.361602 
L 183.40562 -415.702736 
L 183.447409 -420.04387 
L 183.482066 -424.385005 
L 183.51031 -428.726139 
L 183.68969 -428.726139 
L 183.68969 -428.726139 
L 183.717934 -424.385005 
L 183.752591 -420.04387 
L 183.79438 -415.702736 
L 183.843951 -411.361602 
L 183.901876 -407.020468 
L 183.968672 -402.679334 
L 184.044844 -398.3382 
L 184.130961 -393.997066 
L 184.227755 -389.655932 
L 184.33622 -385.314798 
L 184.457717 -380.973663 
L 184.594033 -376.632529 
L 184.747398 -372.291395 
L 184.920423 -367.950261 
L 185.115955 -363.609127 
L 185.336849 -359.267993 
L 185.585665 -354.926859 
L 185.864319 -350.585725 
L 186.173738 -346.24459 
L 186.513548 -341.903456 
L 186.881854 -337.562322 
L 187.27515 -333.221188 
L 187.688392 -328.880054 
L 188.115232 -324.53892 
L 188.548415 -320.197786 
L 188.980295 -315.856652 
L 189.403435 -311.515518 
L 189.811207 -307.174383 
L 190.198351 -302.833249 
L 190.561417 -298.492115 
L 190.899041 -294.150981 
L 191.212032 -289.809847 
L 191.503251 -285.468713 
L 191.777294 -281.127579 
L 192.040017 -276.786445 
L 192.29793 -272.445311 
L 192.557527 -268.104176 
L 192.824611 -263.763042 
L 193.103647 -259.421908 
L 193.397217 -255.080774 
L 193.705596 -250.73964 
L 194.026487 -246.398506 
L 194.354939 -242.057372 
L 194.683446 -237.716238 
L 195.002253 -233.375104 
L 195.299837 -229.033969 
L 195.563571 -224.692835 
L 195.78052 -220.351701 
L 195.938331 -216.010567 
L 196.026152 -211.669433 
L 196.035511 -207.328299 
L 195.961059 -202.987165 
L 195.80111 -198.646031 
L 195.557907 -194.304896 
L 195.237564 -189.963762 
L 194.849693 -185.622628 
L 194.406714 -181.281494 
L 193.92294 -176.94036 
L 193.413504 -172.599226 
L 192.893268 -168.258092 
L 192.375797 -163.916958 
L 191.872531 -159.575824 
L 191.392217 -155.234689 
L 190.94065 -150.893555 
L 190.520719 -146.552421 
L 190.132731 -142.211287 
L 189.774931 -137.870153 
L 189.444139 -133.529019 
L 189.136403 -129.187885 
L 188.847591 -124.846751 
L 188.573847 -120.505617 
L 188.311893 -116.164482 
L 188.059155 -111.823348 
L 187.81375 -107.482214 
L 187.574371 -103.14108 
L 187.340125 -98.799946 
L 187.110367 -94.458812 
L 186.884578 -90.117678 
L 186.662301 -85.776544 
L 186.443146 -81.43541 
L 186.226842 -77.094275 
L 186.013324 -72.753141 
L 185.802818 -68.412007 
L 185.595903 -64.070873 
L 185.393531 -59.729739 
L 185.196995 -55.388605 
L 185.007842 -51.047471 
L 184.82776 -46.706337 
L 184.658426 -42.365202 
L 184.501368 -38.024068 
L 184.357834 -33.682934 
L 184.228694 -29.3418 
L 184.114382 -25.000666 
L 184.014883 -20.659532 
L 183.929754 -16.318398 
L 183.858183 -11.977264 
L 183.79907 -7.63613 
L 183.751114 -3.294995 
L 183.712904 1.046139 
z
" style="stroke: #3f3f3f; stroke-width: 1.5"/>
    </defs>
    <g clip-path="url(#p769c8804ed)">
     <use xlink:href="#m135da6e416" x="0" y="432" style="fill: #3274a1; stroke: #3f3f3f; stroke-width: 1.5"/>
    </g>
   </g>
   <g id="PolyCollection_2">
    <defs>
     <path id="m816faaa581" d="M 411.016558 -57.081729 
L 402.583442 -57.081729 
L 401.655351 -57.755515 
L 400.566684 -58.429301 
L 399.300027 -59.103086 
L 397.838328 -59.776872 
L 396.165451 -60.450657 
L 394.266802 -61.124443 
L 392.130013 -61.798229 
L 389.745655 -62.472014 
L 387.107971 -63.1458 
L 384.215584 -63.819586 
L 381.07216 -64.493371 
L 377.686988 -65.167157 
L 374.075438 -65.840942 
L 370.25927 -66.514728 
L 366.266762 -67.188514 
L 362.132629 -67.862299 
L 357.897721 -68.536085 
L 353.608491 -69.209871 
L 349.316233 -69.883656 
L 345.076099 -70.557442 
L 340.945936 -71.231227 
L 336.984948 -71.905013 
L 333.252259 -72.578799 
L 329.805402 -73.252584 
L 326.698805 -73.92637 
L 323.982321 -74.600155 
L 321.699872 -75.273941 
L 319.888244 -75.947727 
L 318.576096 -76.621512 
L 317.783208 -77.295298 
L 317.52 -77.969084 
L 317.78734 -78.642869 
L 318.576631 -79.316655 
L 319.87018 -79.99044 
L 321.64182 -80.664226 
L 323.857748 -81.338012 
L 326.477549 -82.011797 
L 329.455356 -82.685583 
L 332.741091 -83.359369 
L 336.281754 -84.033154 
L 340.022698 -84.70694 
L 343.908857 -85.380725 
L 347.885889 -86.054511 
L 351.901209 -86.728297 
L 355.904885 -87.402082 
L 359.850387 -88.075868 
L 363.695183 -88.749654 
L 367.401191 -89.423439 
L 370.935081 -90.097225 
L 374.268452 -90.77101 
L 377.377892 -91.444796 
L 380.244939 -92.118582 
L 382.855971 -92.792367 
L 385.202025 -93.466153 
L 387.278578 -94.139939 
L 389.085293 -94.813724 
L 390.625748 -95.48751 
L 391.907151 -96.161295 
L 392.940042 -96.835081 
L 393.738001 -97.508867 
L 394.317329 -98.182652 
L 394.69674 -98.856438 
L 394.897017 -99.530224 
L 394.940661 -100.204009 
L 394.851512 -100.877795 
L 394.654342 -101.55158 
L 394.374423 -102.225366 
L 394.037072 -102.899152 
L 393.667178 -103.572937 
L 393.288717 -104.246723 
L 392.924277 -104.920509 
L 392.594598 -105.594294 
L 392.31815 -106.26808 
L 392.110758 -106.941865 
L 391.985303 -107.615651 
L 391.951502 -108.289437 
L 392.015779 -108.963222 
L 392.181247 -109.637008 
L 392.447782 -110.310794 
L 392.812211 -110.984579 
L 393.268587 -111.658365 
L 393.808546 -112.33215 
L 394.421729 -113.005936 
L 395.096257 -113.679722 
L 395.819222 -114.353507 
L 396.577181 -115.027293 
L 397.35664 -115.701079 
L 398.144496 -116.374864 
L 398.928421 -117.04865 
L 399.69719 -117.722435 
L 400.440926 -118.396221 
L 401.151281 -119.070007 
L 401.821524 -119.743792 
L 402.446569 -120.417578 
L 403.022935 -121.091364 
L 403.548649 -121.765149 
L 404.023107 -122.438935 
L 404.446903 -123.11272 
L 404.82164 -123.786506 
L 408.77836 -123.786506 
L 408.77836 -123.786506 
L 409.153097 -123.11272 
L 409.576893 -122.438935 
L 410.051351 -121.765149 
L 410.577065 -121.091364 
L 411.153431 -120.417578 
L 411.778476 -119.743792 
L 412.448719 -119.070007 
L 413.159074 -118.396221 
L 413.90281 -117.722435 
L 414.671579 -117.04865 
L 415.455504 -116.374864 
L 416.24336 -115.701079 
L 417.022819 -115.027293 
L 417.780778 -114.353507 
L 418.503743 -113.679722 
L 419.178271 -113.005936 
L 419.791454 -112.33215 
L 420.331413 -111.658365 
L 420.787789 -110.984579 
L 421.152218 -110.310794 
L 421.418753 -109.637008 
L 421.584221 -108.963222 
L 421.648498 -108.289437 
L 421.614697 -107.615651 
L 421.489242 -106.941865 
L 421.28185 -106.26808 
L 421.005402 -105.594294 
L 420.675723 -104.920509 
L 420.311283 -104.246723 
L 419.932822 -103.572937 
L 419.562928 -102.899152 
L 419.225577 -102.225366 
L 418.945658 -101.55158 
L 418.748488 -100.877795 
L 418.659339 -100.204009 
L 418.702983 -99.530224 
L 418.90326 -98.856438 
L 419.282671 -98.182652 
L 419.861999 -97.508867 
L 420.659958 -96.835081 
L 421.692849 -96.161295 
L 422.974252 -95.48751 
L 424.514707 -94.813724 
L 426.321422 -94.139939 
L 428.397975 -93.466153 
L 430.744029 -92.792367 
L 433.355061 -92.118582 
L 436.222108 -91.444796 
L 439.331548 -90.77101 
L 442.664919 -90.097225 
L 446.198809 -89.423439 
L 449.904817 -88.749654 
L 453.749613 -88.075868 
L 457.695115 -87.402082 
L 461.698791 -86.728297 
L 465.714111 -86.054511 
L 469.691143 -85.380725 
L 473.577302 -84.70694 
L 477.318246 -84.033154 
L 480.858909 -83.359369 
L 484.144644 -82.685583 
L 487.122451 -82.011797 
L 489.742252 -81.338012 
L 491.95818 -80.664226 
L 493.72982 -79.99044 
L 495.023369 -79.316655 
L 495.81266 -78.642869 
L 496.08 -77.969084 
L 495.816792 -77.295298 
L 495.023904 -76.621512 
L 493.711756 -75.947727 
L 491.900128 -75.273941 
L 489.617679 -74.600155 
L 486.901195 -73.92637 
L 483.794598 -73.252584 
L 480.347741 -72.578799 
L 476.615052 -71.905013 
L 472.654064 -71.231227 
L 468.523901 -70.557442 
L 464.283767 -69.883656 
L 459.991509 -69.209871 
L 455.702279 -68.536085 
L 451.467371 -67.862299 
L 447.333238 -67.188514 
L 443.34073 -66.514728 
L 439.524562 -65.840942 
L 435.913012 -65.167157 
L 432.52784 -64.493371 
L 429.384416 -63.819586 
L 426.492029 -63.1458 
L 423.854345 -62.472014 
L 421.469987 -61.798229 
L 419.333198 -61.124443 
L 417.434549 -60.450657 
L 415.761672 -59.776872 
L 414.299973 -59.103086 
L 413.033316 -58.429301 
L 411.944649 -57.755515 
L 411.016558 -57.081729 
z
" style="stroke: #3f3f3f; stroke-width: 1.5"/>
    </defs>
    <g clip-path="url(#p769c8804ed)">
     <use xlink:href="#m816faaa581" x="0" y="432" style="fill: #e1812c; stroke: #3f3f3f; stroke-width: 1.5"/>
    </g>
   </g>
   <g id="line2d_10">
    <path d="M 183.6 369.36 
L 183.6 66.96 
" clip-path="url(#p769c8804ed)" style="fill: none; stroke: #3f3f3f; stroke-width: 1.5; stroke-linecap: round"/>
   </g>
   <g id="line2d_11">
    <path d="M 183.6 252.995294 
L 183.6 164.795294 
" clip-path="url(#p769c8804ed)" style="fill: none; stroke: #3f3f3f; stroke-width: 4.5; stroke-linecap: round"/>
   </g>
   <g id="line2d_12">
    <path d="M 406.8 359.724706 
L 406.8 346.012941 
" clip-path="url(#p769c8804ed)" style="fill: none; stroke: #3f3f3f; stroke-width: 1.5; stroke-linecap: round"/>
   </g>
   <g id="line2d_13">
    <path d="M 406.8 355.833529 
L 406.8 349.348235 
" clip-path="url(#p769c8804ed)" style="fill: none; stroke: #3f3f3f; stroke-width: 4.5; stroke-linecap: round"/>
   </g>
   <g id="line2d_14">
    <path d="M 183.6 252.995294 
L 183.6 369.36 
" clip-path="url(#p769c8804ed)" style="fill: none; stroke: #4d4d4d; stroke-width: 1.5; stroke-linecap: round"/>
   </g>
   <g id="line2d_15">
    <path d="M 183.6 164.795294 
L 183.6 66.96 
" clip-path="url(#p769c8804ed)" style="fill: none; stroke: #4d4d4d; stroke-width: 1.5; stroke-linecap: round"/>
   </g>
   <g id="line2d_16">
    <path d="M 172.44 369.36 
L 194.76 369.36 
" clip-path="url(#p769c8804ed)" style="fill: none; stroke: #4d4d4d; stroke-width: 1.5; stroke-linecap: round"/>
   </g>
   <g id="line2d_17">
    <path d="M 172.44 66.96 
L 194.76 66.96 
" clip-path="url(#p769c8804ed)" style="fill: none; stroke: #4d4d4d; stroke-width: 1.5; stroke-linecap: round"/>
   </g>
   <g id="line2d_18">
    <path d="M 406.8 355.833529 
L 406.8 359.724706 
" clip-path="url(#p769c8804ed)" style="fill: none; stroke: #4d4d4d; stroke-width: 1.5; stroke-linecap: round"/>
   </g>
   <g id="line2d_19">
    <path d="M 406.8 349.348235 
L 406.8 346.012941 
" clip-path="url(#p769c8804ed)" style="fill: none; stroke: #4d4d4d; stroke-width: 1.5; stroke-linecap: round"/>
   </g>
   <g id="line2d_20">
    <path d="M 395.64 359.724706 
L 417.96 359.724706 
" clip-path="url(#p769c8804ed)" style="fill: none; stroke: #4d4d4d; stroke-width: 1.5; stroke-linecap: round"/>
   </g>
   <g id="line2d_21">
    <path d="M 395.64 346.012941 
L 417.96 346.012941 
" clip-path="url(#p769c8804ed)" style="fill: none; stroke: #4d4d4d; stroke-width: 1.5; stroke-linecap: round"/>
   </g>
   <g id="line2d_22">
    <path d="M 161.28 224.274706 
L 205.92 224.274706 
" clip-path="url(#p769c8804ed)" style="fill: none; stroke: #4d4d4d; stroke-width: 1.5; stroke-linecap: round"/>
   </g>
   <g id="line2d_23">
    <path d="M 384.48 353.61 
L 429.12 353.61 
" clip-path="url(#p769c8804ed)" style="fill: none; stroke: #4d4d4d; stroke-width: 1.5; stroke-linecap: round"/>
   </g>
   <g id="patch_5">
    <path d="M 72 384.48 
L 72 51.84 
" style="fill: none; stroke: #cccccc; stroke-width: 0.8; stroke-linejoin: miter; stroke-linecap: square"/>
   </g>
   <g id="patch_6">
    <path d="M 518.4 384.48 
L 518.4 51.84 
" style="fill: none; stroke: #cccccc; stroke-width: 0.8; stroke-linejoin: miter; stroke-linecap: square"/>
   </g>
   <g id="patch_7">
    <path d="M 72 384.48 
L 518.4 384.48 
" style="fill: none; stroke: #cccccc; stroke-width: 0.8; stroke-linejoin: miter; stroke-linecap: square"/>
   </g>
   <g id="patch_8">
    <path d="M 72 51.84 
L 518.4 51.84 
" style="fill: none; stroke: #cccccc; stroke-width: 0.8; stroke-linejoin: miter; stroke-linecap: square"/>
   </g>
   <g id="PathCollection_1">
    <defs>
     <path id="mbb5a2c230f" d="M 0 1.5 
C 0.397805 1.5 0.77937 1.341951 1.06066 1.06066 
C 1.341951 0.77937 1.5 0.397805 1.5 0 
C 1.5 -0.397805 1.341951 -0.77937 1.06066 -1.06066 
C 0.77937 -1.341951 0.397805 -1.5 0 -1.5 
C -0.397805 -1.5 -0.77937 -1.341951 -1.06066 -1.06066 
C -1.341951 -0.77937 -1.5 -0.397805 -1.5 0 
C -1.5 0.397805 -1.341951 0.77937 -1.06066 1.06066 
C -0.77937 1.341951 -0.397805 1.5 0 1.5 
z
" style="stroke: #3f3f3f"/>
    </defs>
    <g clip-path="url(#p769c8804ed)">
     <use xlink:href="#mbb5a2c230f" x="183.6" y="224.274706" style="fill: #ffffff; stroke: #3f3f3f"/>
    </g>
   </g>
   <g id="PathCollection_2">
    <g clip-path="url(#p769c8804ed)">
     <use xlink:href="#mbb5a2c230f" x="406.8" y="353.61" style="fill: #ffffff; stroke: #3f3f3f"/>
    </g>
   </g>
   <g id="PathCollection_3">
    <defs>
     <path id="m7304ce8b3b" d="M 0 2.5 
C 0.663008 2.5 1.29895 2.236584 1.767767 1.767767 
C 2.236584 1.29895 2.5 0.663008 2.5 0 
C 2.5 -0.663008 2.236584 -1.29895 1.767767 -1.767767 
C 1.29895 -2.236584 0.663008 -2.5 0 -2.5 
C -0.663008 -2.5 -1.29895 -2.236584 -1.767767 -1.767767 
C -2.236584 -1.29895 -2.5 -0.663008 -2.5 0 
C -2.5 0.663008 -2.236584 1.29895 -1.767767 1.767767 
C -1.29895 2.236584 -0.663008 2.5 0 2.5 
z
"/>
    </defs>
    <g clip-path="url(#p769c8804ed)">
     <use xlink:href="#m7304ce8b3b" x="193.356875" y="240.024706"/>
     <use xlink:href="#m7304ce8b3b" x="177.55365" y="250.030588"/>
     <use xlink:href="#m7304ce8b3b" x="203.047414" y="296.724706"/>
     <use xlink:href="#m7304ce8b3b" x="174.050602" y="226.312941"/>
     <use xlink:href="#m7304ce8b3b" x="190.615042" y="292.648235"/>
     <use xlink:href="#m7304ce8b3b" x="182.345856" y="235.207059"/>
     <use xlink:href="#m7304ce8b3b" x="177.388186" y="304.877647"/>
     <use xlink:href="#m7304ce8b3b" x="190.764469" y="232.242353"/>
     <use xlink:href="#m7304ce8b3b" x="162.346928" y="135.518824"/>
     <use xlink:href="#m7304ce8b3b" x="161.884206" y="237.430588"/>
     <use xlink:href="#m7304ce8b3b" x="189.080347" y="128.477647"/>
     <use xlink:href="#m7304ce8b3b" x="197.125379" y="369.36"/>
     <use xlink:href="#m7304ce8b3b" x="193.618061" y="125.512941"/>
     <use xlink:href="#m7304ce8b3b" x="192.447754" y="154.418824"/>
     <use xlink:href="#m7304ce8b3b" x="165.935647" y="111.430588"/>
     <use xlink:href="#m7304ce8b3b" x="193.048001" y="117.730588"/>
     <use xlink:href="#m7304ce8b3b" x="169.043109" y="241.507059"/>
     <use xlink:href="#m7304ce8b3b" x="183.947825" y="142.189412"/>
     <use xlink:href="#m7304ce8b3b" x="175.664832" y="263.742353"/>
     <use xlink:href="#m7304ce8b3b" x="198.990916" y="345.271765"/>
     <use xlink:href="#m7304ce8b3b" x="161.62084" y="142.189412"/>
     <use xlink:href="#m7304ce8b3b" x="165.349898" y="189.254118"/>
     <use xlink:href="#m7304ce8b3b" x="190.671182" y="246.324706"/>
     <use xlink:href="#m7304ce8b3b" x="161.789478" y="343.418824"/>
     <use xlink:href="#m7304ce8b3b" x="197.390153" y="308.212941"/>
     <use xlink:href="#m7304ce8b3b" x="202.018043" y="206.671765"/>
     <use xlink:href="#m7304ce8b3b" x="199.53378" y="227.795294"/>
     <use xlink:href="#m7304ce8b3b" x="196.879327" y="165.165882"/>
     <use xlink:href="#m7304ce8b3b" x="175.04369" y="192.589412"/>
     <use xlink:href="#m7304ce8b3b" x="201.502573" y="221.495294"/>
     <use xlink:href="#m7304ce8b3b" x="196.839434" y="194.071765"/>
     <use xlink:href="#m7304ce8b3b" x="185.226415" y="266.707059"/>
     <use xlink:href="#m7304ce8b3b" x="185.070781" y="181.101176"/>
     <use xlink:href="#m7304ce8b3b" x="203.82263" y="225.942353"/>
     <use xlink:href="#m7304ce8b3b" x="181.082561" y="222.607059"/>
     <use xlink:href="#m7304ce8b3b" x="171.255486" y="192.218824"/>
     <use xlink:href="#m7304ce8b3b" x="173.786202" y="195.924706"/>
     <use xlink:href="#m7304ce8b3b" x="175.205711" y="261.889412"/>
     <use xlink:href="#m7304ce8b3b" x="180.665067" y="155.16"/>
     <use xlink:href="#m7304ce8b3b" x="181.452062" y="225.942353"/>
     <use xlink:href="#m7304ce8b3b" x="179.369714" y="66.96"/>
     <use xlink:href="#m7304ce8b3b" x="194.324979" y="163.683529"/>
     <use xlink:href="#m7304ce8b3b" x="190.318394" y="306.36"/>
     <use xlink:href="#m7304ce8b3b" x="199.078384" y="211.118824"/>
    </g>
   </g>
   <g id="PathCollection_4">
    <g clip-path="url(#p769c8804ed)">
     <use xlink:href="#m7304ce8b3b" x="384.827421" y="353.424706"/>
     <use xlink:href="#m7304ce8b3b" x="404.520198" y="353.795294"/>
     <use xlink:href="#m7304ce8b3b" x="389.066094" y="323.407059"/>
     <use xlink:href="#m7304ce8b3b" x="422.932613" y="355.277647"/>
     <use xlink:href="#m7304ce8b3b" x="398.796654" y="350.46"/>
     <use xlink:href="#m7304ce8b3b" x="387.85747" y="346.012941"/>
     <use xlink:href="#m7304ce8b3b" x="387.869555" y="357.501176"/>
     <use xlink:href="#m7304ce8b3b" x="411.253034" y="359.724706"/>
    </g>
   </g>
  </g>
  <g id="text_14">
   <text style="fill: #262626; font: 700 14px 'sans-serif'; text-anchor: start" x="172.8" y="43.2" transform="rotate(-0 172.8 43.2)">Mann Whiteny U rank test: p-value =2.697948878087237e-05</text>
  </g>
 </g>
 <defs>
  <clipPath id="p769c8804ed">
   <rect x="72" y="51.84" width="446.4" height="332.64"/>
  </clipPath>
 </defs>
</svg>
