<?xml version="1.0" encoding="utf-8" standalone="no"?>
<!DOCTYPE svg PUBLIC "-//W3C//DTD SVG 1.1//EN"
  "http://www.w3.org/Graphics/SVG/1.1/DTD/svg11.dtd">
<svg xmlns:xlink="http://www.w3.org/1999/xlink" width="576pt" height="432pt" viewBox="0 0 576 432" xmlns="http://www.w3.org/2000/svg" version="1.1">
 <metadata>
  <rdf:RDF xmlns:dc="http://purl.org/dc/elements/1.1/" xmlns:cc="http://creativecommons.org/ns#" xmlns:rdf="http://www.w3.org/1999/02/22-rdf-syntax-ns#">
   <cc:Work>
    <dc:type rdf:resource="http://purl.org/dc/dcmitype/StillImage"/>
    <dc:date>2023-05-06T13:09:54.022993</dc:date>
    <dc:format>image/svg+xml</dc:format>
    <dc:creator>
     <cc:Agent>
      <dc:title>Matplotlib v3.6.0, https://matplotlib.org/</dc:title>
     </cc:Agent>
    </dc:creator>
   </cc:Work>
  </rdf:RDF>
 </metadata>
 <defs>
  <style type="text/css">*{stroke-linejoin: round; stroke-linecap: butt}</style>
 </defs>
 <g id="figure_1">
  <g id="patch_1">
   <path d="M 0 432 
L 576 432 
L 576 0 
L 0 0 
z
" style="fill: #ffffff"/>
  </g>
  <g id="axes_1">
   <g id="patch_2">
    <path d="M 72 384.48 
L 518.4 384.48 
L 518.4 51.84 
L 72 51.84 
z
" style="fill: #ffffff"/>
   </g>
   <g id="matplotlib.axis_1">
    <g id="xtick_1">
     <g id="text_1">
      <text style="fill: #262626; font: 10px 'sans-serif'; text-anchor: middle" x="183.6" y="398.759687" transform="rotate(-0 183.6 398.759687)">TCGA_HCC_genome_RS210</text>
     </g>
    </g>
    <g id="xtick_2">
     <g id="text_2">
      <text style="fill: #262626; font: 10px 'sans-serif'; text-anchor: middle" x="406.8" y="398.759687" transform="rotate(-0 406.8 398.759687)">HCC_tumor_genome_RS210</text>
     </g>
    </g>
    <g id="text_3">
     <text style="fill: #262626; font: 10px 'sans-serif'; text-anchor: middle" x="295.2" y="412.144063" transform="rotate(-0 295.2 412.144063)">Sample Type</text>
    </g>
   </g>
   <g id="matplotlib.axis_2">
    <g id="ytick_1">
     <g id="line2d_1">
      <path d="M 72 326.779604 
L 518.4 326.779604 
" clip-path="url(#p9dc24f2638)" style="fill: none; stroke: #cccccc; stroke-width: 0.8; stroke-linecap: round"/>
     </g>
     <g id="text_4">
      <text style="fill: #262626; font: 10px 'sans-serif'; text-anchor: end" x="65" y="330.35851" transform="rotate(-0 65 330.35851)">5.6</text>
     </g>
    </g>
    <g id="ytick_2">
     <g id="line2d_2">
      <path d="M 72 265.93821 
L 518.4 265.93821 
" clip-path="url(#p9dc24f2638)" style="fill: none; stroke: #cccccc; stroke-width: 0.8; stroke-linecap: round"/>
     </g>
     <g id="text_5">
      <text style="fill: #262626; font: 10px 'sans-serif'; text-anchor: end" x="65" y="269.517116" transform="rotate(-0 65 269.517116)">5.8</text>
     </g>
    </g>
    <g id="ytick_3">
     <g id="line2d_3">
      <path d="M 72 205.096815 
L 518.4 205.096815 
" clip-path="url(#p9dc24f2638)" style="fill: none; stroke: #cccccc; stroke-width: 0.8; stroke-linecap: round"/>
     </g>
     <g id="text_6">
      <text style="fill: #262626; font: 10px 'sans-serif'; text-anchor: end" x="65" y="208.675722" transform="rotate(-0 65 208.675722)">6.0</text>
     </g>
    </g>
    <g id="ytick_4">
     <g id="line2d_4">
      <path d="M 72 144.255421 
L 518.4 144.255421 
" clip-path="url(#p9dc24f2638)" style="fill: none; stroke: #cccccc; stroke-width: 0.8; stroke-linecap: round"/>
     </g>
     <g id="text_7">
      <text style="fill: #262626; font: 10px 'sans-serif'; text-anchor: end" x="65" y="147.834327" transform="rotate(-0 65 147.834327)">6.2</text>
     </g>
    </g>
    <g id="ytick_5">
     <g id="line2d_5">
      <path d="M 72 83.414027 
L 518.4 83.414027 
" clip-path="url(#p9dc24f2638)" style="fill: none; stroke: #cccccc; stroke-width: 0.8; stroke-linecap: round"/>
     </g>
     <g id="text_8">
      <text style="fill: #262626; font: 10px 'sans-serif'; text-anchor: end" x="65" y="86.992933" transform="rotate(-0 65 86.992933)">6.4</text>
     </g>
    </g>
    <g id="text_9">
     <text style="fill: #262626; font: 10px 'sans-serif'; text-anchor: middle" x="44.995312" y="218.16" transform="rotate(-90 44.995312 218.16)">Shannon Entropy</text>
    </g>
   </g>
   <g id="patch_3">
    <path d="M 161.28 238.734443 
L 205.92 238.734443 
L 205.92 150.477283 
L 161.28 150.477283 
L 161.28 238.734443 
z
" clip-path="url(#p9dc24f2638)" style="fill: #808080; stroke: #4d4d4d; stroke-width: 1.5; stroke-linejoin: miter"/>
   </g>
   <g id="patch_4">
    <path d="M 384.48 270.202003 
L 429.12 270.202003 
L 429.12 236.678793 
L 384.48 236.678793 
L 384.48 270.202003 
z
" clip-path="url(#p9dc24f2638)" style="fill: #808080; stroke: #4d4d4d; stroke-width: 1.5; stroke-linejoin: miter"/>
   </g>
   <g id="PolyCollection_1">
    <path d="M 184.115761 441.717595 
L 183.084239 441.717595 
L 182.914583 437.20128 
L 182.701576 432.684965 
L 182.43837 428.16865 
L 182.118307 423.652335 
L 181.735336 419.13602 
L 181.284485 414.619705 
L 180.762358 410.10339 
L 180.167628 405.587075 
L 179.50147 401.07076 
L 178.7679 396.554445 
L 177.973965 392.03813 
L 177.129761 387.521815 
L 176.248247 383.0055 
L 175.344851 378.489185 
L 174.436882 373.972869 
L 173.542785 369.456554 
L 172.681275 364.940239 
L 171.870414 360.423924 
L 171.126696 355.907609 
L 170.464197 351.391294 
L 169.89384 346.874979 
L 169.422819 342.358664 
L 169.054208 337.842349 
L 168.786753 333.326034 
L 168.614862 328.809719 
L 168.528763 324.293404 
L 168.51482 319.777089 
L 168.555993 315.260774 
L 168.632411 310.744459 
L 168.722061 306.228144 
L 168.801556 301.711829 
L 168.84699 297.195514 
L 168.834851 292.679198 
L 168.742955 288.162883 
L 168.551388 283.646568 
L 168.243394 279.130253 
L 167.806163 274.613938 
L 167.231475 270.097623 
L 166.516133 265.581308 
L 165.66216 261.064993 
L 164.676733 256.548678 
L 163.571852 252.032363 
L 162.363763 247.516048 
L 161.072184 242.999733 
L 159.719401 238.483418 
L 158.329299 233.967103 
L 156.926424 229.450788 
L 155.535128 224.934473 
L 154.178871 220.418158 
L 152.879701 215.901842 
L 151.65793 211.385527 
L 150.531976 206.869212 
L 149.518334 202.352897 
L 148.631627 197.836582 
L 147.884659 193.320267 
L 147.288439 188.803952 
L 146.852119 184.287637 
L 146.582832 179.771322 
L 146.485456 175.255007 
L 146.562319 170.738692 
L 146.812903 166.222377 
L 147.233628 161.706062 
L 147.81775 157.189747 
L 148.555449 152.673432 
L 149.434111 148.157117 
L 150.438826 143.640802 
L 151.553044 139.124486 
L 152.75936 134.608171 
L 154.040317 130.091856 
L 155.379174 125.575541 
L 156.760541 121.059226 
L 158.170818 116.542911 
L 159.598411 112.026596 
L 161.033709 107.510281 
L 162.468859 102.993966 
L 163.897371 98.477651 
L 165.31364 93.961336 
L 166.712448 89.445021 
L 168.088526 84.928706 
L 169.43622 80.412391 
L 170.749321 75.896076 
L 172.021046 71.379761 
L 173.244189 66.863446 
L 174.41139 62.347131 
L 175.515495 57.830815 
L 176.549958 53.3145 
L 177.509219 48.798185 
L 178.389043 44.28187 
L 179.186758 39.765555 
L 179.901395 35.24924 
L 180.533708 30.732925 
L 181.086087 26.21661 
L 181.56238 21.700295 
L 181.967638 17.18398 
L 182.307825 12.667665 
L 182.589499 8.15135 
L 182.81951 3.635035 
L 183.004715 -0.88128 
L 183.151745 -5.397595 
L 184.048255 -5.397595 
L 184.048255 -5.397595 
L 184.195285 -0.88128 
L 184.38049 3.635035 
L 184.610501 8.15135 
L 184.892175 12.667665 
L 185.232362 17.18398 
L 185.63762 21.700295 
L 186.113913 26.21661 
L 186.666292 30.732925 
L 187.298605 35.24924 
L 188.013242 39.765555 
L 188.810957 44.28187 
L 189.690781 48.798185 
L 190.650042 53.3145 
L 191.684505 57.830815 
L 192.78861 62.347131 
L 193.955811 66.863446 
L 195.178954 71.379761 
L 196.450679 75.896076 
L 197.76378 80.412391 
L 199.111474 84.928706 
L 200.487552 89.445021 
L 201.88636 93.961336 
L 203.302629 98.477651 
L 204.731141 102.993966 
L 206.166291 107.510281 
L 207.601589 112.026596 
L 209.029182 116.542911 
L 210.439459 121.059226 
L 211.820826 125.575541 
L 213.159683 130.091856 
L 214.44064 134.608171 
L 215.646956 139.124486 
L 216.761174 143.640802 
L 217.765889 148.157117 
L 218.644551 152.673432 
L 219.38225 157.189747 
L 219.966372 161.706062 
L 220.387097 166.222377 
L 220.637681 170.738692 
L 220.714544 175.255007 
L 220.617168 179.771322 
L 220.347881 184.287637 
L 219.911561 188.803952 
L 219.315341 193.320267 
L 218.568373 197.836582 
L 217.681666 202.352897 
L 216.668024 206.869212 
L 215.54207 211.385527 
L 214.320299 215.901842 
L 213.021129 220.418158 
L 211.664872 224.934473 
L 210.273576 229.450788 
L 208.870701 233.967103 
L 207.480599 238.483418 
L 206.127816 242.999733 
L 204.836237 247.516048 
L 203.628148 252.032363 
L 202.523267 256.548678 
L 201.53784 261.064993 
L 200.683867 265.581308 
L 199.968525 270.097623 
L 199.393837 274.613938 
L 198.956606 279.130253 
L 198.648612 283.646568 
L 198.457045 288.162883 
L 198.365149 292.679198 
L 198.35301 297.195514 
L 198.398444 301.711829 
L 198.477939 306.228144 
L 198.567589 310.744459 
L 198.644007 315.260774 
L 198.68518 319.777089 
L 198.671237 324.293404 
L 198.585138 328.809719 
L 198.413247 333.326034 
L 198.145792 337.842349 
L 197.777181 342.358664 
L 197.30616 346.874979 
L 196.735803 351.391294 
L 196.073304 355.907609 
L 195.329586 360.423924 
L 194.518725 364.940239 
L 193.657215 369.456554 
L 192.763118 373.972869 
L 191.855149 378.489185 
L 190.951753 383.0055 
L 190.070239 387.521815 
L 189.226035 392.03813 
L 188.4321 396.554445 
L 187.69853 401.07076 
L 187.032372 405.587075 
L 186.437642 410.10339 
L 185.915515 414.619705 
L 185.464664 419.13602 
L 185.081693 423.652335 
L 184.76163 428.16865 
L 184.498424 432.684965 
L 184.285417 437.20128 
L 184.115761 441.717595 
z
" clip-path="url(#p9dc24f2638)" style="fill: #3274a1; stroke: #3f3f3f; stroke-width: 1.5"/>
   </g>
   <g id="PolyCollection_2">
    <defs>
     <path id="m2be6538203" d="M 410.641015 -100.320534 
L 402.958985 -100.320534 
L 402.077922 -102.26874 
L 401.047375 -104.216947 
L 399.855124 -106.165153 
L 398.490949 -108.11336 
L 396.947332 -110.061566 
L 395.220132 -112.009773 
L 393.309196 -113.957979 
L 391.218827 -115.906186 
L 388.958083 -117.854392 
L 386.540841 -119.802598 
L 383.985598 -121.750805 
L 381.314987 -123.699011 
L 378.555 -125.647218 
L 375.733951 -127.595424 
L 372.881213 -129.543631 
L 370.025805 -131.491837 
L 367.194922 -133.440043 
L 364.4125 -135.38825 
L 361.697947 -137.336456 
L 359.065129 -139.284663 
L 356.521723 -141.232869 
L 354.069015 -143.181076 
L 351.70217 -145.129282 
L 349.411006 -147.077489 
L 347.181225 -149.025695 
L 344.996034 -150.973901 
L 342.838055 -152.922108 
L 340.691378 -154.870314 
L 338.543613 -156.818521 
L 336.38778 -158.766727 
L 334.223887 -160.714934 
L 332.060063 -162.66314 
L 329.913158 -164.611347 
L 327.808749 -166.559553 
L 325.780534 -168.507759 
L 323.869158 -170.455966 
L 322.120542 -172.404172 
L 320.583825 -174.352379 
L 319.309048 -176.300585 
L 318.344739 -178.248792 
L 317.735536 -180.196998 
L 317.52 -182.145204 
L 317.728714 -184.093411 
L 318.382788 -186.041617 
L 319.492808 -187.989824 
L 321.058267 -189.93803 
L 323.067481 -191.886237 
L 325.497956 -193.834443 
L 328.317154 -195.78265 
L 331.483607 -197.730856 
L 334.948299 -199.679062 
L 338.656244 -201.627269 
L 342.548179 -203.575475 
L 346.56233 -205.523682 
L 350.636154 -207.471888 
L 354.708038 -209.420095 
L 358.71889 -211.368301 
L 362.6136 -213.316507 
L 366.342321 -215.264714 
L 369.861571 -217.21292 
L 373.135113 -219.161127 
L 376.134612 -221.109333 
L 378.840048 -223.05754 
L 381.239883 -225.005746 
L 383.330985 -226.953953 
L 385.118301 -228.902159 
L 386.614301 -230.850365 
L 387.838209 -232.798572 
L 388.815038 -234.746778 
L 389.574476 -236.694985 
L 390.149653 -238.643191 
L 390.575834 -240.591398 
L 390.889088 -242.539604 
L 391.124991 -244.487811 
L 391.317404 -246.436017 
L 391.497374 -248.384223 
L 391.692213 -250.33243 
L 391.92477 -252.280636 
L 392.212938 -254.228843 
L 392.569395 -256.177049 
L 393.00159 -258.125256 
L 393.511953 -260.073462 
L 394.098311 -262.021668 
L 394.75447 -263.969875 
L 395.470937 -265.918081 
L 396.235709 -267.866288 
L 397.035112 -269.814494 
L 397.854618 -271.762701 
L 398.679622 -273.710907 
L 399.496117 -275.659114 
L 400.291271 -277.60732 
L 401.053861 -279.555526 
L 401.774579 -281.503733 
L 402.446197 -283.451939 
L 403.063607 -285.400146 
L 403.623755 -287.348352 
L 404.125482 -289.296559 
L 404.569299 -291.244765 
L 404.957121 -293.192971 
L 408.642879 -293.192971 
L 408.642879 -293.192971 
L 409.030701 -291.244765 
L 409.474518 -289.296559 
L 409.976245 -287.348352 
L 410.536393 -285.400146 
L 411.153803 -283.451939 
L 411.825421 -281.503733 
L 412.546139 -279.555526 
L 413.308729 -277.60732 
L 414.103883 -275.659114 
L 414.920378 -273.710907 
L 415.745382 -271.762701 
L 416.564888 -269.814494 
L 417.364291 -267.866288 
L 418.129063 -265.918081 
L 418.84553 -263.969875 
L 419.501689 -262.021668 
L 420.088047 -260.073462 
L 420.59841 -258.125256 
L 421.030605 -256.177049 
L 421.387062 -254.228843 
L 421.67523 -252.280636 
L 421.907787 -250.33243 
L 422.102626 -248.384223 
L 422.282596 -246.436017 
L 422.475009 -244.487811 
L 422.710912 -242.539604 
L 423.024166 -240.591398 
L 423.450347 -238.643191 
L 424.025524 -236.694985 
L 424.784962 -234.746778 
L 425.761791 -232.798572 
L 426.985699 -230.850365 
L 428.481699 -228.902159 
L 430.269015 -226.953953 
L 432.360117 -225.005746 
L 434.759952 -223.05754 
L 437.465388 -221.109333 
L 440.464887 -219.161127 
L 443.738429 -217.21292 
L 447.257679 -215.264714 
L 450.9864 -213.316507 
L 454.88111 -211.368301 
L 458.891962 -209.420095 
L 462.963846 -207.471888 
L 467.03767 -205.523682 
L 471.051821 -203.575475 
L 474.943756 -201.627269 
L 478.651701 -199.679062 
L 482.116393 -197.730856 
L 485.282846 -195.78265 
L 488.102044 -193.834443 
L 490.532519 -191.886237 
L 492.541733 -189.93803 
L 494.107192 -187.989824 
L 495.217212 -186.041617 
L 495.871286 -184.093411 
L 496.08 -182.145204 
L 495.864464 -180.196998 
L 495.255261 -178.248792 
L 494.290952 -176.300585 
L 493.016175 -174.352379 
L 491.479458 -172.404172 
L 489.730842 -170.455966 
L 487.819466 -168.507759 
L 485.791251 -166.559553 
L 483.686842 -164.611347 
L 481.539937 -162.66314 
L 479.376113 -160.714934 
L 477.21222 -158.766727 
L 475.056387 -156.818521 
L 472.908622 -154.870314 
L 470.761945 -152.922108 
L 468.603966 -150.973901 
L 466.418775 -149.025695 
L 464.188994 -147.077489 
L 461.89783 -145.129282 
L 459.530985 -143.181076 
L 457.078277 -141.232869 
L 454.534871 -139.284663 
L 451.902053 -137.336456 
L 449.1875 -135.38825 
L 446.405078 -133.440043 
L 443.574195 -131.491837 
L 440.718787 -129.543631 
L 437.866049 -127.595424 
L 435.045 -125.647218 
L 432.285013 -123.699011 
L 429.614402 -121.750805 
L 427.059159 -119.802598 
L 424.641917 -117.854392 
L 422.381173 -115.906186 
L 420.290804 -113.957979 
L 418.379868 -112.009773 
L 416.652668 -110.061566 
L 415.109051 -108.11336 
L 413.744876 -106.165153 
L 412.552625 -104.216947 
L 411.522078 -102.26874 
L 410.641015 -100.320534 
z
" style="stroke: #3f3f3f; stroke-width: 1.5"/>
    </defs>
    <g clip-path="url(#p9dc24f2638)">
     <use xlink:href="#m2be6538203" x="0" y="432" style="fill: #e1812c; stroke: #3f3f3f; stroke-width: 1.5"/>
    </g>
   </g>
   <g id="line2d_6">
    <path d="M 183.6 369.36 
L 183.6 66.96 
" clip-path="url(#p9dc24f2638)" style="fill: none; stroke: #3f3f3f; stroke-width: 1.5; stroke-linecap: round"/>
   </g>
   <g id="line2d_7">
    <path d="M 183.6 238.734443 
L 183.6 150.477283 
" clip-path="url(#p9dc24f2638)" style="fill: none; stroke: #3f3f3f; stroke-width: 4.5; stroke-linecap: round"/>
   </g>
   <g id="line2d_8">
    <path d="M 406.8 291.848356 
L 406.8 228.296046 
" clip-path="url(#p9dc24f2638)" style="fill: none; stroke: #3f3f3f; stroke-width: 1.5; stroke-linecap: round"/>
   </g>
   <g id="line2d_9">
    <path d="M 406.8 270.202003 
L 406.8 236.678793 
" clip-path="url(#p9dc24f2638)" style="fill: none; stroke: #3f3f3f; stroke-width: 4.5; stroke-linecap: round"/>
   </g>
   <g id="line2d_10">
    <path d="M 183.6 238.734443 
L 183.6 369.36 
" clip-path="url(#p9dc24f2638)" style="fill: none; stroke: #4d4d4d; stroke-width: 1.5; stroke-linecap: round"/>
   </g>
   <g id="line2d_11">
    <path d="M 183.6 150.477283 
L 183.6 66.96 
" clip-path="url(#p9dc24f2638)" style="fill: none; stroke: #4d4d4d; stroke-width: 1.5; stroke-linecap: round"/>
   </g>
   <g id="line2d_12">
    <path d="M 172.44 369.36 
L 194.76 369.36 
" clip-path="url(#p9dc24f2638)" style="fill: none; stroke: #4d4d4d; stroke-width: 1.5; stroke-linecap: round"/>
   </g>
   <g id="line2d_13">
    <path d="M 172.44 66.96 
L 194.76 66.96 
" clip-path="url(#p9dc24f2638)" style="fill: none; stroke: #4d4d4d; stroke-width: 1.5; stroke-linecap: round"/>
   </g>
   <g id="line2d_14">
    <path d="M 406.8 270.202003 
L 406.8 291.848356 
" clip-path="url(#p9dc24f2638)" style="fill: none; stroke: #4d4d4d; stroke-width: 1.5; stroke-linecap: round"/>
   </g>
   <g id="line2d_15">
    <path d="M 406.8 236.678793 
L 406.8 228.296046 
" clip-path="url(#p9dc24f2638)" style="fill: none; stroke: #4d4d4d; stroke-width: 1.5; stroke-linecap: round"/>
   </g>
   <g id="line2d_16">
    <path d="M 395.64 291.848356 
L 417.96 291.848356 
" clip-path="url(#p9dc24f2638)" style="fill: none; stroke: #4d4d4d; stroke-width: 1.5; stroke-linecap: round"/>
   </g>
   <g id="line2d_17">
    <path d="M 395.64 228.296046 
L 417.96 228.296046 
" clip-path="url(#p9dc24f2638)" style="fill: none; stroke: #4d4d4d; stroke-width: 1.5; stroke-linecap: round"/>
   </g>
   <g id="line2d_18">
    <path d="M 161.28 191.651607 
L 205.92 191.651607 
" clip-path="url(#p9dc24f2638)" style="fill: none; stroke: #4d4d4d; stroke-width: 1.5; stroke-linecap: round"/>
   </g>
   <g id="line2d_19">
    <path d="M 384.48 251.795966 
L 429.12 251.795966 
" clip-path="url(#p9dc24f2638)" style="fill: none; stroke: #4d4d4d; stroke-width: 1.5; stroke-linecap: round"/>
   </g>
   <g id="patch_5">
    <path d="M 72 384.48 
L 72 51.84 
" style="fill: none; stroke: #cccccc; stroke-width: 0.8; stroke-linejoin: miter; stroke-linecap: square"/>
   </g>
   <g id="patch_6">
    <path d="M 518.4 384.48 
L 518.4 51.84 
" style="fill: none; stroke: #cccccc; stroke-width: 0.8; stroke-linejoin: miter; stroke-linecap: square"/>
   </g>
   <g id="patch_7">
    <path d="M 72 384.48 
L 518.4 384.48 
" style="fill: none; stroke: #cccccc; stroke-width: 0.8; stroke-linejoin: miter; stroke-linecap: square"/>
   </g>
   <g id="patch_8">
    <path d="M 72 51.84 
L 518.4 51.84 
" style="fill: none; stroke: #cccccc; stroke-width: 0.8; stroke-linejoin: miter; stroke-linecap: square"/>
   </g>
   <g id="PathCollection_1">
    <defs>
     <path id="m41c0e6c4fe" d="M 0 1.5 
C 0.397805 1.5 0.77937 1.341951 1.06066 1.06066 
C 1.341951 0.77937 1.5 0.397805 1.5 0 
C 1.5 -0.397805 1.341951 -0.77937 1.06066 -1.06066 
C 0.77937 -1.341951 0.397805 -1.5 0 -1.5 
C -0.397805 -1.5 -0.77937 -1.341951 -1.06066 -1.06066 
C -1.341951 -0.77937 -1.5 -0.397805 -1.5 0 
C -1.5 0.397805 -1.341951 0.77937 -1.06066 1.06066 
C -0.77937 1.341951 -0.397805 1.5 0 1.5 
z
" style="stroke: #3f3f3f"/>
    </defs>
    <g clip-path="url(#p9dc24f2638)">
     <use xlink:href="#m41c0e6c4fe" x="183.6" y="191.651607" style="fill: #ffffff; stroke: #3f3f3f"/>
    </g>
   </g>
   <g id="PathCollection_2">
    <g clip-path="url(#p9dc24f2638)">
     <use xlink:href="#m41c0e6c4fe" x="406.8" y="251.795966" style="fill: #ffffff; stroke: #3f3f3f"/>
    </g>
   </g>
   <g id="PathCollection_3">
    <defs>
     <path id="m37ea368508" d="M 0 2.5 
C 0.663008 2.5 1.29895 2.236584 1.767767 1.767767 
C 2.236584 1.29895 2.5 0.663008 2.5 0 
C 2.5 -0.663008 2.236584 -1.29895 1.767767 -1.767767 
C 1.29895 -2.236584 0.663008 -2.5 0 -2.5 
C -0.663008 -2.5 -1.29895 -2.236584 -1.767767 -1.767767 
C -2.236584 -1.29895 -2.5 -0.663008 -2.5 0 
C -2.5 0.663008 -2.236584 1.29895 -1.767767 1.767767 
C -1.29895 2.236584 -0.663008 2.5 0 2.5 
z
"/>
    </defs>
    <g clip-path="url(#p9dc24f2638)">
     <use xlink:href="#m37ea368508" x="164.776302" y="329.779146"/>
     <use xlink:href="#m37ea368508" x="173.333437" y="213.470636"/>
     <use xlink:href="#m37ea368508" x="189.982606" y="165.526036"/>
     <use xlink:href="#m37ea368508" x="187.99013" y="235.685069"/>
     <use xlink:href="#m37ea368508" x="194.685301" y="140.596654"/>
     <use xlink:href="#m37ea368508" x="189.069267" y="97.426775"/>
     <use xlink:href="#m37ea368508" x="164.346322" y="178.446839"/>
     <use xlink:href="#m37ea368508" x="162.833472" y="224.831655"/>
     <use xlink:href="#m37ea368508" x="188.754155" y="213.535006"/>
     <use xlink:href="#m37ea368508" x="196.370373" y="186.74957"/>
     <use xlink:href="#m37ea368508" x="198.03037" y="175.439366"/>
     <use xlink:href="#m37ea368508" x="180.60487" y="165.06472"/>
     <use xlink:href="#m37ea368508" x="200.864332" y="313.926395"/>
     <use xlink:href="#m37ea368508" x="180.486694" y="150.561836"/>
     <use xlink:href="#m37ea368508" x="162.141597" y="76.507621"/>
     <use xlink:href="#m37ea368508" x="171.913454" y="172.495402"/>
     <use xlink:href="#m37ea368508" x="167.191946" y="297.153889"/>
     <use xlink:href="#m37ea368508" x="188.742189" y="130.99409"/>
     <use xlink:href="#m37ea368508" x="168.816175" y="150.643285"/>
     <use xlink:href="#m37ea368508" x="188.994598" y="193.013234"/>
     <use xlink:href="#m37ea368508" x="193.735378" y="330.497682"/>
     <use xlink:href="#m37ea368508" x="164.24651" y="151.93755"/>
     <use xlink:href="#m37ea368508" x="205.154383" y="301.93487"/>
     <use xlink:href="#m37ea368508" x="191.80562" y="237.83968"/>
     <use xlink:href="#m37ea368508" x="162.405901" y="150.245903"/>
     <use xlink:href="#m37ea368508" x="188.874736" y="165.341"/>
     <use xlink:href="#m37ea368508" x="194.090244" y="194.863974"/>
     <use xlink:href="#m37ea368508" x="167.583602" y="352.056074"/>
     <use xlink:href="#m37ea368508" x="161.976877" y="112.636114"/>
     <use xlink:href="#m37ea368508" x="178.119945" y="239.032697"/>
     <use xlink:href="#m37ea368508" x="203.103192" y="354.262378"/>
     <use xlink:href="#m37ea368508" x="168.395621" y="263.633679"/>
     <use xlink:href="#m37ea368508" x="161.75429" y="113.651749"/>
     <use xlink:href="#m37ea368508" x="178.354761" y="223.961672"/>
     <use xlink:href="#m37ea368508" x="180.534092" y="105.497445"/>
     <use xlink:href="#m37ea368508" x="194.617495" y="93.235136"/>
     <use xlink:href="#m37ea368508" x="175.464891" y="66.96"/>
     <use xlink:href="#m37ea368508" x="189.463091" y="151.655336"/>
     <use xlink:href="#m37ea368508" x="173.725307" y="215.042343"/>
     <use xlink:href="#m37ea368508" x="204.611133" y="211.973094"/>
     <use xlink:href="#m37ea368508" x="181.505271" y="148.621698"/>
     <use xlink:href="#m37ea368508" x="178.55348" y="150.449099"/>
     <use xlink:href="#m37ea368508" x="190.734182" y="369.36"/>
     <use xlink:href="#m37ea368508" x="177.387071" y="346.063815"/>
     <use xlink:href="#m37ea368508" x="186.629072" y="198.108436"/>
     <use xlink:href="#m37ea368508" x="179.281587" y="353.232701"/>
     <use xlink:href="#m37ea368508" x="177.491294" y="126.515868"/>
     <use xlink:href="#m37ea368508" x="184.822904" y="312.33393"/>
     <use xlink:href="#m37ea368508" x="178.358276" y="275.089825"/>
     <use xlink:href="#m37ea368508" x="188.949113" y="178.611626"/>
     <use xlink:href="#m37ea368508" x="171.672287" y="194.573803"/>
     <use xlink:href="#m37ea368508" x="192.894248" y="230.619781"/>
     <use xlink:href="#m37ea368508" x="190.120228" y="97.338887"/>
     <use xlink:href="#m37ea368508" x="164.170329" y="190.28998"/>
    </g>
   </g>
   <g id="PathCollection_4">
    <g clip-path="url(#p9dc24f2638)">
     <use xlink:href="#m37ea368508" x="405.440096" y="232.590366"/>
     <use xlink:href="#m37ea368508" x="385.007197" y="256.172701"/>
     <use xlink:href="#m37ea368508" x="392.532887" y="228.296046"/>
     <use xlink:href="#m37ea368508" x="397.75062" y="284.231305"/>
     <use xlink:href="#m37ea368508" x="412.275823" y="254.952343"/>
     <use xlink:href="#m37ea368508" x="421.164896" y="287.601994"/>
     <use xlink:href="#m37ea368508" x="413.525179" y="251.795966"/>
     <use xlink:href="#m37ea368508" x="387.393188" y="240.767221"/>
     <use xlink:href="#m37ea368508" x="386.377171" y="178.638139"/>
     <use xlink:href="#m37ea368508" x="416.852369" y="291.848356"/>
     <use xlink:href="#m37ea368508" x="411.595261" y="250.470591"/>
    </g>
   </g>
  </g>
  <g id="text_10">
   <text style="fill: #262626; font: 700 14px 'sans-serif'; text-anchor: start" x="172.8" y="43.2" transform="rotate(-0 172.8 43.2)">Mann Whiteny U rank test: p-value =0.016934320075020288</text>
  </g>
 </g>
 <defs>
  <clipPath id="p9dc24f2638">
   <rect x="72" y="51.84" width="446.4" height="332.64"/>
  </clipPath>
 </defs>
</svg>
