<?xml version="1.0" encoding="utf-8" standalone="no"?>
<!DOCTYPE svg PUBLIC "-//W3C//DTD SVG 1.1//EN"
  "http://www.w3.org/Graphics/SVG/1.1/DTD/svg11.dtd">
<svg xmlns:xlink="http://www.w3.org/1999/xlink" width="576pt" height="432pt" viewBox="0 0 576 432" xmlns="http://www.w3.org/2000/svg" version="1.1">
 <metadata>
  <rdf:RDF xmlns:dc="http://purl.org/dc/elements/1.1/" xmlns:cc="http://creativecommons.org/ns#" xmlns:rdf="http://www.w3.org/1999/02/22-rdf-syntax-ns#">
   <cc:Work>
    <dc:type rdf:resource="http://purl.org/dc/dcmitype/StillImage"/>
    <dc:date>2023-05-06T13:09:53.708913</dc:date>
    <dc:format>image/svg+xml</dc:format>
    <dc:creator>
     <cc:Agent>
      <dc:title>Matplotlib v3.6.0, https://matplotlib.org/</dc:title>
     </cc:Agent>
    </dc:creator>
   </cc:Work>
  </rdf:RDF>
 </metadata>
 <defs>
  <style type="text/css">*{stroke-linejoin: round; stroke-linecap: butt}</style>
 </defs>
 <g id="figure_1">
  <g id="patch_1">
   <path d="M 0 432 
L 576 432 
L 576 0 
L 0 0 
z
" style="fill: #ffffff"/>
  </g>
  <g id="axes_1">
   <g id="patch_2">
    <path d="M 72 384.48 
L 518.4 384.48 
L 518.4 51.84 
L 72 51.84 
z
" style="fill: #ffffff"/>
   </g>
   <g id="matplotlib.axis_1">
    <g id="xtick_1">
     <g id="text_1">
      <text style="fill: #262626; font: 10px 'sans-serif'; text-anchor: middle" x="183.6" y="398.759687" transform="rotate(-0 183.6 398.759687)">TCGA_HCC_genome_RS210</text>
     </g>
    </g>
    <g id="xtick_2">
     <g id="text_2">
      <text style="fill: #262626; font: 10px 'sans-serif'; text-anchor: middle" x="406.8" y="398.759687" transform="rotate(-0 406.8 398.759687)">HCC_tumor_genome_RS210</text>
     </g>
    </g>
    <g id="text_3">
     <text style="fill: #262626; font: 10px 'sans-serif'; text-anchor: middle" x="295.2" y="412.144063" transform="rotate(-0 295.2 412.144063)">Sample Type</text>
    </g>
   </g>
   <g id="matplotlib.axis_2">
    <g id="ytick_1">
     <g id="line2d_1">
      <path d="M 72 343.490973 
L 518.4 343.490973 
" clip-path="url(#p9380e59651)" style="fill: none; stroke: #cccccc; stroke-width: 0.8; stroke-linecap: round"/>
     </g>
     <g id="text_4">
      <text style="fill: #262626; font: 10px 'sans-serif'; text-anchor: end" x="65" y="347.06988" transform="rotate(-0 65 347.06988)">150</text>
     </g>
    </g>
    <g id="ytick_2">
     <g id="line2d_2">
      <path d="M 72 298.889204 
L 518.4 298.889204 
" clip-path="url(#p9380e59651)" style="fill: none; stroke: #cccccc; stroke-width: 0.8; stroke-linecap: round"/>
     </g>
     <g id="text_5">
      <text style="fill: #262626; font: 10px 'sans-serif'; text-anchor: end" x="65" y="302.46811" transform="rotate(-0 65 302.46811)">200</text>
     </g>
    </g>
    <g id="ytick_3">
     <g id="line2d_3">
      <path d="M 72 254.287434 
L 518.4 254.287434 
" clip-path="url(#p9380e59651)" style="fill: none; stroke: #cccccc; stroke-width: 0.8; stroke-linecap: round"/>
     </g>
     <g id="text_6">
      <text style="fill: #262626; font: 10px 'sans-serif'; text-anchor: end" x="65" y="257.86634" transform="rotate(-0 65 257.86634)">250</text>
     </g>
    </g>
    <g id="ytick_4">
     <g id="line2d_4">
      <path d="M 72 209.685664 
L 518.4 209.685664 
" clip-path="url(#p9380e59651)" style="fill: none; stroke: #cccccc; stroke-width: 0.8; stroke-linecap: round"/>
     </g>
     <g id="text_7">
      <text style="fill: #262626; font: 10px 'sans-serif'; text-anchor: end" x="65" y="213.26457" transform="rotate(-0 65 213.26457)">300</text>
     </g>
    </g>
    <g id="ytick_5">
     <g id="line2d_5">
      <path d="M 72 165.083894 
L 518.4 165.083894 
" clip-path="url(#p9380e59651)" style="fill: none; stroke: #cccccc; stroke-width: 0.8; stroke-linecap: round"/>
     </g>
     <g id="text_8">
      <text style="fill: #262626; font: 10px 'sans-serif'; text-anchor: end" x="65" y="168.6628" transform="rotate(-0 65 168.6628)">350</text>
     </g>
    </g>
    <g id="ytick_6">
     <g id="line2d_6">
      <path d="M 72 120.482124 
L 518.4 120.482124 
" clip-path="url(#p9380e59651)" style="fill: none; stroke: #cccccc; stroke-width: 0.8; stroke-linecap: round"/>
     </g>
     <g id="text_9">
      <text style="fill: #262626; font: 10px 'sans-serif'; text-anchor: end" x="65" y="124.06103" transform="rotate(-0 65 124.06103)">400</text>
     </g>
    </g>
    <g id="ytick_7">
     <g id="line2d_7">
      <path d="M 72 75.880354 
L 518.4 75.880354 
" clip-path="url(#p9380e59651)" style="fill: none; stroke: #cccccc; stroke-width: 0.8; stroke-linecap: round"/>
     </g>
     <g id="text_10">
      <text style="fill: #262626; font: 10px 'sans-serif'; text-anchor: end" x="65" y="79.45926" transform="rotate(-0 65 79.45926)">450</text>
     </g>
    </g>
    <g id="text_11">
     <text style="fill: #262626; font: 10px 'sans-serif'; text-anchor: middle" x="42.329687" y="218.16" transform="rotate(-90 42.329687 218.16)">Observed Features</text>
    </g>
   </g>
   <g id="patch_3">
    <path d="M 161.28 208.124602 
L 205.92 208.124602 
L 205.92 141.890973 
L 161.28 141.890973 
L 161.28 208.124602 
z
" clip-path="url(#p9380e59651)" style="fill: #808080; stroke: #4d4d4d; stroke-width: 1.5; stroke-linejoin: miter"/>
   </g>
   <g id="patch_4">
    <path d="M 384.48 358.209558 
L 429.12 358.209558 
L 429.12 352.411327 
L 384.48 352.411327 
L 384.48 358.209558 
z
" clip-path="url(#p9380e59651)" style="fill: #808080; stroke: #4d4d4d; stroke-width: 1.5; stroke-linejoin: miter"/>
   </g>
   <g id="PolyCollection_1">
    <defs>
     <path id="m36f16a698b" d="M 183.826738 -107.564282 
L 183.373262 -107.564282 
L 183.29838 -110.630333 
L 183.20492 -113.696384 
L 183.090318 -116.762435 
L 182.952238 -119.828486 
L 182.788725 -122.894537 
L 182.598363 -125.960588 
L 182.380385 -129.026639 
L 182.134736 -132.09269 
L 181.862055 -135.158741 
L 181.563562 -138.224792 
L 181.240846 -141.290843 
L 180.895555 -144.356894 
L 180.529009 -147.422945 
L 180.141763 -150.488996 
L 179.733177 -153.555047 
L 179.30103 -156.621097 
L 178.841244 -159.687148 
L 178.347781 -162.753199 
L 177.812736 -165.81925 
L 177.226679 -168.885301 
L 176.579245 -171.951352 
L 175.859953 -175.017403 
L 175.059221 -178.083454 
L 174.169507 -181.149505 
L 173.18648 -184.215556 
L 172.110132 -187.281607 
L 170.945694 -190.347658 
L 169.704262 -193.413709 
L 168.403018 -196.47976 
L 167.064979 -199.545811 
L 165.718227 -202.611862 
L 164.394633 -205.677913 
L 163.128122 -208.743964 
L 161.952604 -211.810015 
L 160.899718 -214.876066 
L 159.996586 -217.942117 
L 159.263801 -221.008168 
L 158.713833 -224.074219 
L 158.350046 -227.14027 
L 158.166446 -230.206321 
L 158.148209 -233.272372 
L 158.27296 -236.338423 
L 158.512703 -239.404474 
L 158.836205 -242.470525 
L 159.21162 -245.536576 
L 159.609082 -248.602627 
L 160.00302 -251.668678 
L 160.373966 -254.734729 
L 160.709704 -257.80078 
L 161.005654 -260.866831 
L 161.264505 -263.932882 
L 161.495155 -266.998933 
L 161.711125 -270.064984 
L 161.928626 -273.131035 
L 162.16453 -276.197086 
L 162.434445 -279.263137 
L 162.751114 -282.329188 
L 163.123269 -285.395239 
L 163.555032 -288.46129 
L 164.045866 -291.527341 
L 164.591025 -294.593392 
L 165.182389 -297.659443 
L 165.809533 -300.725494 
L 166.460894 -303.791545 
L 167.124864 -306.857595 
L 167.790724 -309.923646 
L 168.449327 -312.989697 
L 169.093516 -316.055748 
L 169.718294 -319.121799 
L 170.320783 -322.18785 
L 170.900042 -325.253901 
L 171.456795 -328.319952 
L 171.993131 -331.386003 
L 172.512195 -334.452054 
L 173.017897 -337.518105 
L 173.514619 -340.584156 
L 174.006929 -343.650207 
L 174.499275 -346.716258 
L 174.99566 -349.782309 
L 175.499319 -352.84836 
L 176.012403 -355.914411 
L 176.535713 -358.980462 
L 177.068519 -362.046513 
L 177.608492 -365.112564 
L 178.151774 -368.178615 
L 178.693186 -371.244666 
L 179.226562 -374.310717 
L 179.745186 -377.376768 
L 180.242266 -380.442819 
L 180.711428 -383.50887 
L 181.14714 -386.574921 
L 181.545064 -389.640972 
L 181.902278 -392.707023 
L 182.217371 -395.773074 
L 182.490407 -398.839125 
L 182.722786 -401.905176 
L 182.917014 -404.971227 
L 183.076428 -408.037278 
L 183.204901 -411.103329 
L 183.995099 -411.103329 
L 183.995099 -411.103329 
L 184.123572 -408.037278 
L 184.282986 -404.971227 
L 184.477214 -401.905176 
L 184.709593 -398.839125 
L 184.982629 -395.773074 
L 185.297722 -392.707023 
L 185.654936 -389.640972 
L 186.05286 -386.574921 
L 186.488572 -383.50887 
L 186.957734 -380.442819 
L 187.454814 -377.376768 
L 187.973438 -374.310717 
L 188.506814 -371.244666 
L 189.048226 -368.178615 
L 189.591508 -365.112564 
L 190.131481 -362.046513 
L 190.664287 -358.980462 
L 191.187597 -355.914411 
L 191.700681 -352.84836 
L 192.20434 -349.782309 
L 192.700725 -346.716258 
L 193.193071 -343.650207 
L 193.685381 -340.584156 
L 194.182103 -337.518105 
L 194.687805 -334.452054 
L 195.206869 -331.386003 
L 195.743205 -328.319952 
L 196.299958 -325.253901 
L 196.879217 -322.18785 
L 197.481706 -319.121799 
L 198.106484 -316.055748 
L 198.750673 -312.989697 
L 199.409276 -309.923646 
L 200.075136 -306.857595 
L 200.739106 -303.791545 
L 201.390467 -300.725494 
L 202.017611 -297.659443 
L 202.608975 -294.593392 
L 203.154134 -291.527341 
L 203.644968 -288.46129 
L 204.076731 -285.395239 
L 204.448886 -282.329188 
L 204.765555 -279.263137 
L 205.03547 -276.197086 
L 205.271374 -273.131035 
L 205.488875 -270.064984 
L 205.704845 -266.998933 
L 205.935495 -263.932882 
L 206.194346 -260.866831 
L 206.490296 -257.80078 
L 206.826034 -254.734729 
L 207.19698 -251.668678 
L 207.590918 -248.602627 
L 207.98838 -245.536576 
L 208.363795 -242.470525 
L 208.687297 -239.404474 
L 208.92704 -236.338423 
L 209.051791 -233.272372 
L 209.033554 -230.206321 
L 208.849954 -227.14027 
L 208.486167 -224.074219 
L 207.936199 -221.008168 
L 207.203414 -217.942117 
L 206.300282 -214.876066 
L 205.247396 -211.810015 
L 204.071878 -208.743964 
L 202.805367 -205.677913 
L 201.481773 -202.611862 
L 200.135021 -199.545811 
L 198.796982 -196.47976 
L 197.495738 -193.413709 
L 196.254306 -190.347658 
L 195.089868 -187.281607 
L 194.01352 -184.215556 
L 193.030493 -181.149505 
L 192.140779 -178.083454 
L 191.340047 -175.017403 
L 190.620755 -171.951352 
L 189.973321 -168.885301 
L 189.387264 -165.81925 
L 188.852219 -162.753199 
L 188.358756 -159.687148 
L 187.89897 -156.621097 
L 187.466823 -153.555047 
L 187.058237 -150.488996 
L 186.670991 -147.422945 
L 186.304445 -144.356894 
L 185.959154 -141.290843 
L 185.636438 -138.224792 
L 185.337945 -135.158741 
L 185.065264 -132.09269 
L 184.819615 -129.026639 
L 184.601637 -125.960588 
L 184.411275 -122.894537 
L 184.247762 -119.828486 
L 184.109682 -116.762435 
L 183.99508 -113.696384 
L 183.90162 -110.630333 
L 183.826738 -107.564282 
z
" style="stroke: #3f3f3f; stroke-width: 1.5"/>
    </defs>
    <g clip-path="url(#p9380e59651)">
     <use xlink:href="#m36f16a698b" x="0" y="432" style="fill: #3274a1; stroke: #3f3f3f; stroke-width: 1.5"/>
    </g>
   </g>
   <g id="PolyCollection_2">
    <defs>
     <path id="m9d14374c2b" d="M 409.514876 -36.736957 
L 404.085124 -36.736957 
L 403.370976 -38.053171 
L 402.505366 -39.369386 
L 401.466071 -40.6856 
L 400.230036 -42.001814 
L 398.77396 -43.318028 
L 397.075026 -44.634242 
L 395.111772 -45.950456 
L 392.865091 -47.26667 
L 390.319341 -48.582885 
L 387.463529 -49.899099 
L 384.292531 -51.215313 
L 380.808301 -52.531527 
L 377.02099 -53.847741 
L 372.949929 -55.163955 
L 368.624376 -56.48017 
L 364.083979 -57.796384 
L 359.378871 -59.112598 
L 354.569331 -60.428812 
L 349.724989 -61.745026 
L 344.923535 -63.06124 
L 340.248937 -64.377454 
L 335.78922 -65.693669 
L 331.633848 -67.009883 
L 327.870828 -68.326097 
L 324.583644 -69.642311 
L 321.848174 -70.958525 
L 319.729758 -72.274739 
L 318.280552 -73.590953 
L 317.537354 -74.907168 
L 317.52 -76.223382 
L 318.230453 -77.539596 
L 319.65264 -78.85581 
L 321.753043 -80.172024 
L 324.482026 -81.488238 
L 327.775822 -82.804452 
L 331.55905 -84.120667 
L 335.747639 -85.436881 
L 340.251981 -86.753095 
L 344.980149 -88.069309 
L 349.84101 -89.385523 
L 354.747088 -90.701737 
L 359.617049 -92.017951 
L 364.377717 -93.334166 
L 368.965566 -94.65038 
L 373.327668 -95.966594 
L 377.422098 -97.282808 
L 381.217856 -98.599022 
L 384.694353 -99.915236 
L 387.84055 -101.23145 
L 390.653836 -102.547665 
L 393.138738 -103.863879 
L 395.305553 -105.180093 
L 397.168969 -106.496307 
L 398.746766 -107.812521 
L 400.058632 -109.128735 
L 401.125146 -110.444949 
L 401.966947 -111.761164 
L 402.604114 -113.077378 
L 403.055747 -114.393592 
L 403.339741 -115.709806 
L 403.472738 -117.02602 
L 403.470225 -118.342234 
L 403.346751 -119.658448 
L 403.116218 -120.974663 
L 402.792214 -122.290877 
L 402.388343 -123.607091 
L 401.918519 -124.923305 
L 401.397193 -126.239519 
L 400.839473 -127.555733 
L 400.26114 -128.871948 
L 399.678524 -130.188162 
L 399.108264 -131.504376 
L 398.566953 -132.82059 
L 398.070685 -134.136804 
L 397.634549 -135.453018 
L 397.272087 -136.769232 
L 396.994776 -138.085447 
L 396.811558 -139.401661 
L 396.72847 -140.717875 
L 396.748388 -142.034089 
L 396.870924 -143.350303 
L 397.092476 -144.666517 
L 397.406433 -145.982731 
L 397.803526 -147.298946 
L 398.272296 -148.61516 
L 398.799655 -149.931374 
L 399.371495 -151.247588 
L 399.973318 -152.563802 
L 400.590835 -153.880016 
L 401.210515 -155.19623 
L 401.820046 -156.512445 
L 402.408695 -157.828659 
L 402.967548 -159.144873 
L 403.489645 -160.461087 
L 403.969995 -161.777301 
L 404.405503 -163.093515 
L 404.794807 -164.409729 
L 405.138069 -165.725944 
L 405.436723 -167.042158 
L 408.163277 -167.042158 
L 408.163277 -167.042158 
L 408.461931 -165.725944 
L 408.805193 -164.409729 
L 409.194497 -163.093515 
L 409.630005 -161.777301 
L 410.110355 -160.461087 
L 410.632452 -159.144873 
L 411.191305 -157.828659 
L 411.779954 -156.512445 
L 412.389485 -155.19623 
L 413.009165 -153.880016 
L 413.626682 -152.563802 
L 414.228505 -151.247588 
L 414.800345 -149.931374 
L 415.327704 -148.61516 
L 415.796474 -147.298946 
L 416.193567 -145.982731 
L 416.507524 -144.666517 
L 416.729076 -143.350303 
L 416.851612 -142.034089 
L 416.87153 -140.717875 
L 416.788442 -139.401661 
L 416.605224 -138.085447 
L 416.327913 -136.769232 
L 415.965451 -135.453018 
L 415.529315 -134.136804 
L 415.033047 -132.82059 
L 414.491736 -131.504376 
L 413.921476 -130.188162 
L 413.33886 -128.871948 
L 412.760527 -127.555733 
L 412.202807 -126.239519 
L 411.681481 -124.923305 
L 411.211657 -123.607091 
L 410.807786 -122.290877 
L 410.483782 -120.974663 
L 410.253249 -119.658448 
L 410.129775 -118.342234 
L 410.127262 -117.02602 
L 410.260259 -115.709806 
L 410.544253 -114.393592 
L 410.995886 -113.077378 
L 411.633053 -111.761164 
L 412.474854 -110.444949 
L 413.541368 -109.128735 
L 414.853234 -107.812521 
L 416.431031 -106.496307 
L 418.294447 -105.180093 
L 420.461262 -103.863879 
L 422.946164 -102.547665 
L 425.75945 -101.23145 
L 428.905647 -99.915236 
L 432.382144 -98.599022 
L 436.177902 -97.282808 
L 440.272332 -95.966594 
L 444.634434 -94.65038 
L 449.222283 -93.334166 
L 453.982951 -92.017951 
L 458.852912 -90.701737 
L 463.75899 -89.385523 
L 468.619851 -88.069309 
L 473.348019 -86.753095 
L 477.852361 -85.436881 
L 482.04095 -84.120667 
L 485.824178 -82.804452 
L 489.117974 -81.488238 
L 491.846957 -80.172024 
L 493.94736 -78.85581 
L 495.369547 -77.539596 
L 496.08 -76.223382 
L 496.062646 -74.907168 
L 495.319448 -73.590953 
L 493.870242 -72.274739 
L 491.751826 -70.958525 
L 489.016356 -69.642311 
L 485.729172 -68.326097 
L 481.966152 -67.009883 
L 477.81078 -65.693669 
L 473.351063 -64.377454 
L 468.676465 -63.06124 
L 463.875011 -61.745026 
L 459.030669 -60.428812 
L 454.221129 -59.112598 
L 449.516021 -57.796384 
L 444.975624 -56.48017 
L 440.650071 -55.163955 
L 436.57901 -53.847741 
L 432.791699 -52.531527 
L 429.307469 -51.215313 
L 426.136471 -49.899099 
L 423.280659 -48.582885 
L 420.734909 -47.26667 
L 418.488228 -45.950456 
L 416.524974 -44.634242 
L 414.82604 -43.318028 
L 413.369964 -42.001814 
L 412.133929 -40.6856 
L 411.094634 -39.369386 
L 410.229024 -38.053171 
L 409.514876 -36.736957 
z
" style="stroke: #3f3f3f; stroke-width: 1.5"/>
    </defs>
    <g clip-path="url(#p9380e59651)">
     <use xlink:href="#m9d14374c2b" x="0" y="432" style="fill: #e1812c; stroke: #3f3f3f; stroke-width: 1.5"/>
    </g>
   </g>
   <g id="line2d_8">
    <path d="M 183.6 278.372389 
L 183.6 66.96 
" clip-path="url(#p9380e59651)" style="fill: none; stroke: #3f3f3f; stroke-width: 1.5; stroke-linecap: round"/>
   </g>
   <g id="line2d_9">
    <path d="M 183.6 208.124602 
L 183.6 141.890973 
" clip-path="url(#p9380e59651)" style="fill: none; stroke: #3f3f3f; stroke-width: 4.5; stroke-linecap: round"/>
   </g>
   <g id="line2d_10">
    <path d="M 406.8 364.899823 
L 406.8 350.627257 
" clip-path="url(#p9380e59651)" style="fill: none; stroke: #3f3f3f; stroke-width: 1.5; stroke-linecap: round"/>
   </g>
   <g id="line2d_11">
    <path d="M 406.8 358.209558 
L 406.8 352.411327 
" clip-path="url(#p9380e59651)" style="fill: none; stroke: #3f3f3f; stroke-width: 4.5; stroke-linecap: round"/>
   </g>
   <g id="line2d_12">
    <path d="M 183.6 208.124602 
L 183.6 278.372389 
" clip-path="url(#p9380e59651)" style="fill: none; stroke: #4d4d4d; stroke-width: 1.5; stroke-linecap: round"/>
   </g>
   <g id="line2d_13">
    <path d="M 183.6 141.890973 
L 183.6 66.96 
" clip-path="url(#p9380e59651)" style="fill: none; stroke: #4d4d4d; stroke-width: 1.5; stroke-linecap: round"/>
   </g>
   <g id="line2d_14">
    <path d="M 172.44 278.372389 
L 194.76 278.372389 
" clip-path="url(#p9380e59651)" style="fill: none; stroke: #4d4d4d; stroke-width: 1.5; stroke-linecap: round"/>
   </g>
   <g id="line2d_15">
    <path d="M 172.44 66.96 
L 194.76 66.96 
" clip-path="url(#p9380e59651)" style="fill: none; stroke: #4d4d4d; stroke-width: 1.5; stroke-linecap: round"/>
   </g>
   <g id="line2d_16">
    <path d="M 406.8 358.209558 
L 406.8 364.899823 
" clip-path="url(#p9380e59651)" style="fill: none; stroke: #4d4d4d; stroke-width: 1.5; stroke-linecap: round"/>
   </g>
   <g id="line2d_17">
    <path d="M 406.8 352.411327 
L 406.8 350.627257 
" clip-path="url(#p9380e59651)" style="fill: none; stroke: #4d4d4d; stroke-width: 1.5; stroke-linecap: round"/>
   </g>
   <g id="line2d_18">
    <path d="M 395.64 364.899823 
L 417.96 364.899823 
" clip-path="url(#p9380e59651)" style="fill: none; stroke: #4d4d4d; stroke-width: 1.5; stroke-linecap: round"/>
   </g>
   <g id="line2d_19">
    <path d="M 395.64 350.627257 
L 417.96 350.627257 
" clip-path="url(#p9380e59651)" style="fill: none; stroke: #4d4d4d; stroke-width: 1.5; stroke-linecap: round"/>
   </g>
   <g id="line2d_20">
    <path d="M 161.28 178.910442 
L 205.92 178.910442 
" clip-path="url(#p9380e59651)" style="fill: none; stroke: #4d4d4d; stroke-width: 1.5; stroke-linecap: round"/>
   </g>
   <g id="line2d_21">
    <path d="M 384.48 355.087434 
L 429.12 355.087434 
" clip-path="url(#p9380e59651)" style="fill: none; stroke: #4d4d4d; stroke-width: 1.5; stroke-linecap: round"/>
   </g>
   <g id="patch_5">
    <path d="M 72 384.48 
L 72 51.84 
" style="fill: none; stroke: #cccccc; stroke-width: 0.8; stroke-linejoin: miter; stroke-linecap: square"/>
   </g>
   <g id="patch_6">
    <path d="M 518.4 384.48 
L 518.4 51.84 
" style="fill: none; stroke: #cccccc; stroke-width: 0.8; stroke-linejoin: miter; stroke-linecap: square"/>
   </g>
   <g id="patch_7">
    <path d="M 72 384.48 
L 518.4 384.48 
" style="fill: none; stroke: #cccccc; stroke-width: 0.8; stroke-linejoin: miter; stroke-linecap: square"/>
   </g>
   <g id="patch_8">
    <path d="M 72 51.84 
L 518.4 51.84 
" style="fill: none; stroke: #cccccc; stroke-width: 0.8; stroke-linejoin: miter; stroke-linecap: square"/>
   </g>
   <g id="PathCollection_1">
    <defs>
     <path id="md2a650eb75" d="M 0 1.5 
C 0.397805 1.5 0.77937 1.341951 1.06066 1.06066 
C 1.341951 0.77937 1.5 0.397805 1.5 0 
C 1.5 -0.397805 1.341951 -0.77937 1.06066 -1.06066 
C 0.77937 -1.341951 0.397805 -1.5 0 -1.5 
C -0.397805 -1.5 -0.77937 -1.341951 -1.06066 -1.06066 
C -1.341951 -0.77937 -1.5 -0.397805 -1.5 0 
C -1.5 0.397805 -1.341951 0.77937 -1.06066 1.06066 
C -0.77937 1.341951 -0.397805 1.5 0 1.5 
z
" style="stroke: #3f3f3f"/>
    </defs>
    <g clip-path="url(#p9380e59651)">
     <use xlink:href="#md2a650eb75" x="183.6" y="178.910442" style="fill: #ffffff; stroke: #3f3f3f"/>
    </g>
   </g>
   <g id="PathCollection_2">
    <g clip-path="url(#p9380e59651)">
     <use xlink:href="#md2a650eb75" x="406.8" y="355.087434" style="fill: #ffffff; stroke: #3f3f3f"/>
    </g>
   </g>
   <g id="PathCollection_3">
    <defs>
     <path id="mff291f8466" d="M 0 2.5 
C 0.663008 2.5 1.29895 2.236584 1.767767 1.767767 
C 2.236584 1.29895 2.5 0.663008 2.5 0 
C 2.5 -0.663008 2.236584 -1.29895 1.767767 -1.767767 
C 1.29895 -2.236584 0.663008 -2.5 0 -2.5 
C -0.663008 -2.5 -1.29895 -2.236584 -1.767767 -1.767767 
C -2.236584 -1.29895 -2.5 -0.663008 -2.5 0 
C -2.5 0.663008 -2.236584 1.29895 -1.767767 1.767767 
C -1.29895 2.236584 -0.663008 2.5 0 2.5 
z
"/>
    </defs>
    <g clip-path="url(#p9380e59651)">
     <use xlink:href="#mff291f8466" x="176.168928" y="182.032566"/>
     <use xlink:href="#mff291f8466" x="203.110348" y="141.890973"/>
     <use xlink:href="#mff291f8466" x="172.00596" y="194.521062"/>
     <use xlink:href="#mff291f8466" x="168.103436" y="142.783009"/>
     <use xlink:href="#mff291f8466" x="164.07774" y="211.469735"/>
     <use xlink:href="#mff291f8466" x="191.464673" y="163.299823"/>
     <use xlink:href="#mff291f8466" x="195.864774" y="84.800708"/>
     <use xlink:href="#mff291f8466" x="191.153066" y="108.885664"/>
     <use xlink:href="#mff291f8466" x="191.305511" y="146.35115"/>
     <use xlink:href="#mff291f8466" x="205.538567" y="123.15823"/>
     <use xlink:href="#mff291f8466" x="165.582616" y="203.441416"/>
     <use xlink:href="#mff291f8466" x="194.36324" y="199.873274"/>
     <use xlink:href="#mff291f8466" x="187.897016" y="199.873274"/>
     <use xlink:href="#mff291f8466" x="174.703122" y="211.469735"/>
     <use xlink:href="#mff291f8466" x="198.320655" y="149.027257"/>
     <use xlink:href="#mff291f8466" x="169.859218" y="206.117522"/>
     <use xlink:href="#mff291f8466" x="202.465935" y="278.372389"/>
     <use xlink:href="#mff291f8466" x="198.175327" y="112.453805"/>
     <use xlink:href="#mff291f8466" x="201.561455" y="218.606018"/>
     <use xlink:href="#mff291f8466" x="195.98168" y="238.230796"/>
     <use xlink:href="#mff291f8466" x="162.994637" y="156.16354"/>
     <use xlink:href="#mff291f8466" x="173.965789" y="66.96"/>
     <use xlink:href="#mff291f8466" x="186.345624" y="182.924602"/>
     <use xlink:href="#mff291f8466" x="202.949868" y="141.890973"/>
     <use xlink:href="#mff291f8466" x="190.350397" y="204.333451"/>
     <use xlink:href="#mff291f8466" x="168.254829" y="205.225487"/>
     <use xlink:href="#mff291f8466" x="203.991721" y="257.855575"/>
     <use xlink:href="#mff291f8466" x="194.133529" y="182.032566"/>
     <use xlink:href="#mff291f8466" x="188.012545" y="208.793628"/>
     <use xlink:href="#mff291f8466" x="167.944844" y="119.590088"/>
     <use xlink:href="#mff291f8466" x="174.665926" y="175.788319"/>
     <use xlink:href="#mff291f8466" x="170.136809" y="149.919292"/>
     <use xlink:href="#mff291f8466" x="164.344688" y="193.629027"/>
     <use xlink:href="#mff291f8466" x="164.093402" y="111.56177"/>
     <use xlink:href="#mff291f8466" x="189.264741" y="158.839646"/>
     <use xlink:href="#mff291f8466" x="173.452276" y="67.852035"/>
     <use xlink:href="#mff291f8466" x="170.19159" y="127.618407"/>
     <use xlink:href="#mff291f8466" x="172.194026" y="77.664425"/>
     <use xlink:href="#mff291f8466" x="198.752677" y="266.775929"/>
     <use xlink:href="#mff291f8466" x="201.047652" y="91.936991"/>
     <use xlink:href="#mff291f8466" x="170.558818" y="100.857345"/>
     <use xlink:href="#mff291f8466" x="165.599795" y="227.526372"/>
     <use xlink:href="#mff291f8466" x="178.810742" y="202.549381"/>
     <use xlink:href="#mff291f8466" x="190.640345" y="160.623717"/>
     <use xlink:href="#mff291f8466" x="173.465645" y="220.390088"/>
     <use xlink:href="#mff291f8466" x="188.317163" y="211.469735"/>
     <use xlink:href="#mff291f8466" x="185.286296" y="198.981239"/>
     <use xlink:href="#mff291f8466" x="200.642695" y="149.919292"/>
     <use xlink:href="#mff291f8466" x="182.298449" y="159.731681"/>
     <use xlink:href="#mff291f8466" x="197.978936" y="219.498053"/>
     <use xlink:href="#mff291f8466" x="173.967079" y="239.122832"/>
     <use xlink:href="#mff291f8466" x="180.581552" y="140.106903"/>
     <use xlink:href="#mff291f8466" x="162.009831" y="172.220177"/>
     <use xlink:href="#mff291f8466" x="194.752462" y="223.066195"/>
    </g>
   </g>
   <g id="PathCollection_4">
    <g clip-path="url(#p9380e59651)">
     <use xlink:href="#mff291f8466" x="418.297239" y="343.490973"/>
     <use xlink:href="#mff291f8466" x="404.548768" y="350.627257"/>
     <use xlink:href="#mff291f8466" x="412.467363" y="357.76354"/>
     <use xlink:href="#mff291f8466" x="395.933959" y="354.195398"/>
     <use xlink:href="#mff291f8466" x="414.289066" y="358.655575"/>
     <use xlink:href="#mff291f8466" x="408.358508" y="364.899823"/>
     <use xlink:href="#mff291f8466" x="409.154342" y="354.195398"/>
     <use xlink:href="#mff291f8466" x="395.273157" y="355.087434"/>
     <use xlink:href="#mff291f8466" x="395.235656" y="290.860885"/>
     <use xlink:href="#mff291f8466" x="398.459164" y="369.36"/>
     <use xlink:href="#mff291f8466" x="427.94866" y="356.871504"/>
    </g>
   </g>
  </g>
  <g id="text_12">
   <text style="fill: #262626; font: 700 14px 'sans-serif'; text-anchor: start" x="172.8" y="43.2" transform="rotate(-0 172.8 43.2)">Mann Whiteny U rank test: p-value =2.1266174750666193e-07</text>
  </g>
 </g>
 <defs>
  <clipPath id="p9380e59651">
   <rect x="72" y="51.84" width="446.4" height="332.64"/>
  </clipPath>
 </defs>
</svg>
